<?xml version="1.0" encoding="utf-8" standalone="no"?>
<!DOCTYPE svg PUBLIC "-//W3C//DTD SVG 1.1//EN"
  "http://www.w3.org/Graphics/SVG/1.1/DTD/svg11.dtd">
<svg xmlns:xlink="http://www.w3.org/1999/xlink" width="879.84pt" height="315.36pt" viewBox="0 0 879.84 315.36" xmlns="http://www.w3.org/2000/svg" version="1.1">
 <metadata>
  <rdf:RDF xmlns:dc="http://purl.org/dc/elements/1.1/" xmlns:cc="http://creativecommons.org/ns#" xmlns:rdf="http://www.w3.org/1999/02/22-rdf-syntax-ns#">
   <cc:Work>
    <dc:type rdf:resource="http://purl.org/dc/dcmitype/StillImage"/>
    <dc:date>2026-07-05T21:20:12.239023</dc:date>
    <dc:format>image/svg+xml</dc:format>
    <dc:creator>
     <cc:Agent>
      <dc:title>Matplotlib v3.10.8, https://matplotlib.org/</dc:title>
     </cc:Agent>
    </dc:creator>
   </cc:Work>
  </rdf:RDF>
 </metadata>
 <defs>
  <style type="text/css">*{stroke-linejoin: round; stroke-linecap: butt}</style>
 </defs>
 <g id="figure_1">
  <g id="patch_1">
   <path d="M 0 315.36 
L 879.84 315.36 
L 879.84 0 
L 0 0 
z
" style="fill: #ffffff"/>
  </g>
  <g id="axes_1">
   <g id="patch_2">
    <path d="M 27.9648 169.4304 
L 199.6128 169.4304 
L 199.6128 57.8016 
L 27.9648 57.8016 
z
" clip-path="url(#pb907eeac27)" style="fill: #4b8bbe; opacity: 0.85; stroke: #000000; stroke-linejoin: miter"/>
   </g>
   <g id="patch_3">
    <path d="M 238.2336 169.4304 
L 409.8816 169.4304 
L 409.8816 57.8016 
L 238.2336 57.8016 
z
" clip-path="url(#pb907eeac27)" style="fill: #8e7cc3; opacity: 0.85; stroke: #000000; stroke-linejoin: miter"/>
   </g>
   <g id="patch_4">
    <path d="M 448.5024 169.4304 
L 620.1504 169.4304 
L 620.1504 57.8016 
L 448.5024 57.8016 
z
" clip-path="url(#pb907eeac27)" style="fill: #5bcb97; opacity: 0.85; stroke: #000000; stroke-linejoin: miter"/>
   </g>
   <g id="patch_5">
    <path d="M 658.7712 169.4304 
L 830.4192 169.4304 
L 830.4192 57.8016 
L 658.7712 57.8016 
z
" clip-path="url(#pb907eeac27)" style="fill: #2ca5e0; opacity: 0.85; stroke: #000000; stroke-linejoin: miter"/>
   </g>
   <g id="text_1">
    <!-- Vision -->
    <g style="fill: #22282e" transform="translate(96.608331 107.838869) scale(0.1 -0.1)">
     <defs>
      <path id="DejaVuSans-Bold-56" d="M 31 4666 
L 1241 4666 
L 2478 1222 
L 3713 4666 
L 4922 4666 
L 3194 0 
L 1759 0 
L 31 4666 
z
" transform="scale(0.015625)"/>
      <path id="DejaVuSans-Bold-69" d="M 538 3500 
L 1656 3500 
L 1656 0 
L 538 0 
L 538 3500 
z
M 538 4863 
L 1656 4863 
L 1656 3950 
L 538 3950 
L 538 4863 
z
" transform="scale(0.015625)"/>
      <path id="DejaVuSans-Bold-73" d="M 3272 3391 
L 3272 2541 
Q 2913 2691 2578 2766 
Q 2244 2841 1947 2841 
Q 1628 2841 1473 2761 
Q 1319 2681 1319 2516 
Q 1319 2381 1436 2309 
Q 1553 2238 1856 2203 
L 2053 2175 
Q 2913 2066 3209 1816 
Q 3506 1566 3506 1031 
Q 3506 472 3093 190 
Q 2681 -91 1863 -91 
Q 1516 -91 1145 -36 
Q 775 19 384 128 
L 384 978 
Q 719 816 1070 734 
Q 1422 653 1784 653 
Q 2113 653 2278 743 
Q 2444 834 2444 1013 
Q 2444 1163 2330 1236 
Q 2216 1309 1875 1350 
L 1678 1375 
Q 931 1469 631 1722 
Q 331 1975 331 2491 
Q 331 3047 712 3315 
Q 1094 3584 1881 3584 
Q 2191 3584 2531 3537 
Q 2872 3491 3272 3391 
z
" transform="scale(0.015625)"/>
      <path id="DejaVuSans-Bold-6f" d="M 2203 2784 
Q 1831 2784 1636 2517 
Q 1441 2250 1441 1747 
Q 1441 1244 1636 976 
Q 1831 709 2203 709 
Q 2569 709 2762 976 
Q 2956 1244 2956 1747 
Q 2956 2250 2762 2517 
Q 2569 2784 2203 2784 
z
M 2203 3584 
Q 3106 3584 3614 3096 
Q 4122 2609 4122 1747 
Q 4122 884 3614 396 
Q 3106 -91 2203 -91 
Q 1297 -91 786 396 
Q 275 884 275 1747 
Q 275 2609 786 3096 
Q 1297 3584 2203 3584 
z
" transform="scale(0.015625)"/>
      <path id="DejaVuSans-Bold-6e" d="M 4056 2131 
L 4056 0 
L 2931 0 
L 2931 347 
L 2931 1631 
Q 2931 2084 2911 2256 
Q 2891 2428 2841 2509 
Q 2775 2619 2662 2680 
Q 2550 2741 2406 2741 
Q 2056 2741 1856 2470 
Q 1656 2200 1656 1722 
L 1656 0 
L 538 0 
L 538 3500 
L 1656 3500 
L 1656 2988 
Q 1909 3294 2193 3439 
Q 2478 3584 2822 3584 
Q 3428 3584 3742 3212 
Q 4056 2841 4056 2131 
z
" transform="scale(0.015625)"/>
     </defs>
     <use xlink:href="#DejaVuSans-Bold-56"/>
     <use xlink:href="#DejaVuSans-Bold-69" transform="translate(75.642578 0)"/>
     <use xlink:href="#DejaVuSans-Bold-73" transform="translate(109.919922 0)"/>
     <use xlink:href="#DejaVuSans-Bold-69" transform="translate(169.441406 0)"/>
     <use xlink:href="#DejaVuSans-Bold-6f" transform="translate(203.71875 0)"/>
     <use xlink:href="#DejaVuSans-Bold-6e" transform="translate(272.419922 0)"/>
    </g>
    <!-- (vision.db) -->
    <g style="fill: #22282e" transform="translate(83.503644 119.036681) scale(0.1 -0.1)">
     <defs>
      <path id="DejaVuSans-Bold-28" d="M 2413 -844 
L 1484 -844 
Q 1006 -72 778 623 
Q 550 1319 550 2003 
Q 550 2688 779 3389 
Q 1009 4091 1484 4856 
L 2413 4856 
Q 2013 4116 1813 3408 
Q 1613 2700 1613 2009 
Q 1613 1319 1811 609 
Q 2009 -100 2413 -844 
z
" transform="scale(0.015625)"/>
      <path id="DejaVuSans-Bold-76" d="M 97 3500 
L 1216 3500 
L 2088 1081 
L 2956 3500 
L 4078 3500 
L 2700 0 
L 1472 0 
L 97 3500 
z
" transform="scale(0.015625)"/>
      <path id="DejaVuSans-Bold-2e" d="M 653 1209 
L 1778 1209 
L 1778 0 
L 653 0 
L 653 1209 
z
" transform="scale(0.015625)"/>
      <path id="DejaVuSans-Bold-64" d="M 2919 2988 
L 2919 4863 
L 4044 4863 
L 4044 0 
L 2919 0 
L 2919 506 
Q 2688 197 2409 53 
Q 2131 -91 1766 -91 
Q 1119 -91 703 423 
Q 288 938 288 1747 
Q 288 2556 703 3070 
Q 1119 3584 1766 3584 
Q 2128 3584 2408 3439 
Q 2688 3294 2919 2988 
z
M 2181 722 
Q 2541 722 2730 984 
Q 2919 1247 2919 1747 
Q 2919 2247 2730 2509 
Q 2541 2772 2181 2772 
Q 1825 2772 1636 2509 
Q 1447 2247 1447 1747 
Q 1447 1247 1636 984 
Q 1825 722 2181 722 
z
" transform="scale(0.015625)"/>
      <path id="DejaVuSans-Bold-62" d="M 2400 722 
Q 2759 722 2948 984 
Q 3138 1247 3138 1747 
Q 3138 2247 2948 2509 
Q 2759 2772 2400 2772 
Q 2041 2772 1848 2508 
Q 1656 2244 1656 1747 
Q 1656 1250 1848 986 
Q 2041 722 2400 722 
z
M 1656 2988 
Q 1888 3294 2169 3439 
Q 2450 3584 2816 3584 
Q 3463 3584 3878 3070 
Q 4294 2556 4294 1747 
Q 4294 938 3878 423 
Q 3463 -91 2816 -91 
Q 2450 -91 2169 54 
Q 1888 200 1656 506 
L 1656 0 
L 538 0 
L 538 4863 
L 1656 4863 
L 1656 2988 
z
" transform="scale(0.015625)"/>
      <path id="DejaVuSans-Bold-29" d="M 513 -844 
Q 913 -100 1113 609 
Q 1313 1319 1313 2009 
Q 1313 2700 1113 3408 
Q 913 4116 513 4856 
L 1441 4856 
Q 1916 4091 2145 3389 
Q 2375 2688 2375 2003 
Q 2375 1319 2147 623 
Q 1919 -72 1441 -844 
L 513 -844 
z
" transform="scale(0.015625)"/>
     </defs>
     <use xlink:href="#DejaVuSans-Bold-28"/>
     <use xlink:href="#DejaVuSans-Bold-76" transform="translate(45.703125 0)"/>
     <use xlink:href="#DejaVuSans-Bold-69" transform="translate(110.888672 0)"/>
     <use xlink:href="#DejaVuSans-Bold-73" transform="translate(145.166016 0)"/>
     <use xlink:href="#DejaVuSans-Bold-69" transform="translate(204.6875 0)"/>
     <use xlink:href="#DejaVuSans-Bold-6f" transform="translate(238.964844 0)"/>
     <use xlink:href="#DejaVuSans-Bold-6e" transform="translate(307.666016 0)"/>
     <use xlink:href="#DejaVuSans-Bold-2e" transform="translate(378.857422 0)"/>
     <use xlink:href="#DejaVuSans-Bold-64" transform="translate(416.845703 0)"/>
     <use xlink:href="#DejaVuSans-Bold-62" transform="translate(488.427734 0)"/>
     <use xlink:href="#DejaVuSans-Bold-29" transform="translate(560.009766 0)"/>
    </g>
   </g>
   <g id="text_2">
    <!-- landmark_events -->
    <g style="fill: #22282e" transform="translate(81.518292 210.380428) scale(0.075 -0.075)">
     <defs>
      <path id="DejaVuSans-6c" d="M 603 4863 
L 1178 4863 
L 1178 0 
L 603 0 
L 603 4863 
z
" transform="scale(0.015625)"/>
      <path id="DejaVuSans-61" d="M 2194 1759 
Q 1497 1759 1228 1600 
Q 959 1441 959 1056 
Q 959 750 1161 570 
Q 1363 391 1709 391 
Q 2188 391 2477 730 
Q 2766 1069 2766 1631 
L 2766 1759 
L 2194 1759 
z
M 3341 1997 
L 3341 0 
L 2766 0 
L 2766 531 
Q 2569 213 2275 61 
Q 1981 -91 1556 -91 
Q 1019 -91 701 211 
Q 384 513 384 1019 
Q 384 1609 779 1909 
Q 1175 2209 1959 2209 
L 2766 2209 
L 2766 2266 
Q 2766 2663 2505 2880 
Q 2244 3097 1772 3097 
Q 1472 3097 1187 3025 
Q 903 2953 641 2809 
L 641 3341 
Q 956 3463 1253 3523 
Q 1550 3584 1831 3584 
Q 2591 3584 2966 3190 
Q 3341 2797 3341 1997 
z
" transform="scale(0.015625)"/>
      <path id="DejaVuSans-6e" d="M 3513 2113 
L 3513 0 
L 2938 0 
L 2938 2094 
Q 2938 2591 2744 2837 
Q 2550 3084 2163 3084 
Q 1697 3084 1428 2787 
Q 1159 2491 1159 1978 
L 1159 0 
L 581 0 
L 581 3500 
L 1159 3500 
L 1159 2956 
Q 1366 3272 1645 3428 
Q 1925 3584 2291 3584 
Q 2894 3584 3203 3211 
Q 3513 2838 3513 2113 
z
" transform="scale(0.015625)"/>
      <path id="DejaVuSans-64" d="M 2906 2969 
L 2906 4863 
L 3481 4863 
L 3481 0 
L 2906 0 
L 2906 525 
Q 2725 213 2448 61 
Q 2172 -91 1784 -91 
Q 1150 -91 751 415 
Q 353 922 353 1747 
Q 353 2572 751 3078 
Q 1150 3584 1784 3584 
Q 2172 3584 2448 3432 
Q 2725 3281 2906 2969 
z
M 947 1747 
Q 947 1113 1208 752 
Q 1469 391 1925 391 
Q 2381 391 2643 752 
Q 2906 1113 2906 1747 
Q 2906 2381 2643 2742 
Q 2381 3103 1925 3103 
Q 1469 3103 1208 2742 
Q 947 2381 947 1747 
z
" transform="scale(0.015625)"/>
      <path id="DejaVuSans-6d" d="M 3328 2828 
Q 3544 3216 3844 3400 
Q 4144 3584 4550 3584 
Q 5097 3584 5394 3201 
Q 5691 2819 5691 2113 
L 5691 0 
L 5113 0 
L 5113 2094 
Q 5113 2597 4934 2840 
Q 4756 3084 4391 3084 
Q 3944 3084 3684 2787 
Q 3425 2491 3425 1978 
L 3425 0 
L 2847 0 
L 2847 2094 
Q 2847 2600 2669 2842 
Q 2491 3084 2119 3084 
Q 1678 3084 1418 2786 
Q 1159 2488 1159 1978 
L 1159 0 
L 581 0 
L 581 3500 
L 1159 3500 
L 1159 2956 
Q 1356 3278 1631 3431 
Q 1906 3584 2284 3584 
Q 2666 3584 2933 3390 
Q 3200 3197 3328 2828 
z
" transform="scale(0.015625)"/>
      <path id="DejaVuSans-72" d="M 2631 2963 
Q 2534 3019 2420 3045 
Q 2306 3072 2169 3072 
Q 1681 3072 1420 2755 
Q 1159 2438 1159 1844 
L 1159 0 
L 581 0 
L 581 3500 
L 1159 3500 
L 1159 2956 
Q 1341 3275 1631 3429 
Q 1922 3584 2338 3584 
Q 2397 3584 2469 3576 
Q 2541 3569 2628 3553 
L 2631 2963 
z
" transform="scale(0.015625)"/>
      <path id="DejaVuSans-6b" d="M 581 4863 
L 1159 4863 
L 1159 1991 
L 2875 3500 
L 3609 3500 
L 1753 1863 
L 3688 0 
L 2938 0 
L 1159 1709 
L 1159 0 
L 581 0 
L 581 4863 
z
" transform="scale(0.015625)"/>
      <path id="DejaVuSans-5f" d="M 3263 -1063 
L 3263 -1509 
L -63 -1509 
L -63 -1063 
L 3263 -1063 
z
" transform="scale(0.015625)"/>
      <path id="DejaVuSans-65" d="M 3597 1894 
L 3597 1613 
L 953 1613 
Q 991 1019 1311 708 
Q 1631 397 2203 397 
Q 2534 397 2845 478 
Q 3156 559 3463 722 
L 3463 178 
Q 3153 47 2828 -22 
Q 2503 -91 2169 -91 
Q 1331 -91 842 396 
Q 353 884 353 1716 
Q 353 2575 817 3079 
Q 1281 3584 2069 3584 
Q 2775 3584 3186 3129 
Q 3597 2675 3597 1894 
z
M 3022 2063 
Q 3016 2534 2758 2815 
Q 2500 3097 2075 3097 
Q 1594 3097 1305 2825 
Q 1016 2553 972 2059 
L 3022 2063 
z
" transform="scale(0.015625)"/>
      <path id="DejaVuSans-76" d="M 191 3500 
L 800 3500 
L 1894 563 
L 2988 3500 
L 3597 3500 
L 2284 0 
L 1503 0 
L 191 3500 
z
" transform="scale(0.015625)"/>
      <path id="DejaVuSans-74" d="M 1172 4494 
L 1172 3500 
L 2356 3500 
L 2356 3053 
L 1172 3053 
L 1172 1153 
Q 1172 725 1289 603 
Q 1406 481 1766 481 
L 2356 481 
L 2356 0 
L 1766 0 
Q 1100 0 847 248 
Q 594 497 594 1153 
L 594 3053 
L 172 3053 
L 172 3500 
L 594 3500 
L 594 4494 
L 1172 4494 
z
" transform="scale(0.015625)"/>
      <path id="DejaVuSans-73" d="M 2834 3397 
L 2834 2853 
Q 2591 2978 2328 3040 
Q 2066 3103 1784 3103 
Q 1356 3103 1142 2972 
Q 928 2841 928 2578 
Q 928 2378 1081 2264 
Q 1234 2150 1697 2047 
L 1894 2003 
Q 2506 1872 2764 1633 
Q 3022 1394 3022 966 
Q 3022 478 2636 193 
Q 2250 -91 1575 -91 
Q 1294 -91 989 -36 
Q 684 19 347 128 
L 347 722 
Q 666 556 975 473 
Q 1284 391 1588 391 
Q 1994 391 2212 530 
Q 2431 669 2431 922 
Q 2431 1156 2273 1281 
Q 2116 1406 1581 1522 
L 1381 1569 
Q 847 1681 609 1914 
Q 372 2147 372 2553 
Q 372 3047 722 3315 
Q 1072 3584 1716 3584 
Q 2034 3584 2315 3537 
Q 2597 3491 2834 3397 
z
" transform="scale(0.015625)"/>
     </defs>
     <use xlink:href="#DejaVuSans-6c"/>
     <use xlink:href="#DejaVuSans-61" transform="translate(27.783203 0)"/>
     <use xlink:href="#DejaVuSans-6e" transform="translate(89.0625 0)"/>
     <use xlink:href="#DejaVuSans-64" transform="translate(152.441406 0)"/>
     <use xlink:href="#DejaVuSans-6d" transform="translate(215.917969 0)"/>
     <use xlink:href="#DejaVuSans-61" transform="translate(313.330078 0)"/>
     <use xlink:href="#DejaVuSans-72" transform="translate(374.609375 0)"/>
     <use xlink:href="#DejaVuSans-6b" transform="translate(415.722656 0)"/>
     <use xlink:href="#DejaVuSans-5f" transform="translate(473.632812 0)"/>
     <use xlink:href="#DejaVuSans-65" transform="translate(523.632812 0)"/>
     <use xlink:href="#DejaVuSans-76" transform="translate(585.15625 0)"/>
     <use xlink:href="#DejaVuSans-65" transform="translate(644.335938 0)"/>
     <use xlink:href="#DejaVuSans-6e" transform="translate(705.859375 0)"/>
     <use xlink:href="#DejaVuSans-74" transform="translate(769.238281 0)"/>
     <use xlink:href="#DejaVuSans-73" transform="translate(808.447266 0)"/>
    </g>
    <!--  gaze / attention / zone -->
    <g style="fill: #22282e" transform="translate(70.297003 218.987381) scale(0.075 -0.075)">
     <defs>
      <path id="DejaVuSans-20" transform="scale(0.015625)"/>
      <path id="DejaVuSans-67" d="M 2906 1791 
Q 2906 2416 2648 2759 
Q 2391 3103 1925 3103 
Q 1463 3103 1205 2759 
Q 947 2416 947 1791 
Q 947 1169 1205 825 
Q 1463 481 1925 481 
Q 2391 481 2648 825 
Q 2906 1169 2906 1791 
z
M 3481 434 
Q 3481 -459 3084 -895 
Q 2688 -1331 1869 -1331 
Q 1566 -1331 1297 -1286 
Q 1028 -1241 775 -1147 
L 775 -588 
Q 1028 -725 1275 -790 
Q 1522 -856 1778 -856 
Q 2344 -856 2625 -561 
Q 2906 -266 2906 331 
L 2906 616 
Q 2728 306 2450 153 
Q 2172 0 1784 0 
Q 1141 0 747 490 
Q 353 981 353 1791 
Q 353 2603 747 3093 
Q 1141 3584 1784 3584 
Q 2172 3584 2450 3431 
Q 2728 3278 2906 2969 
L 2906 3500 
L 3481 3500 
L 3481 434 
z
" transform="scale(0.015625)"/>
      <path id="DejaVuSans-7a" d="M 353 3500 
L 3084 3500 
L 3084 2975 
L 922 459 
L 3084 459 
L 3084 0 
L 275 0 
L 275 525 
L 2438 3041 
L 353 3041 
L 353 3500 
z
" transform="scale(0.015625)"/>
      <path id="DejaVuSans-2f" d="M 1625 4666 
L 2156 4666 
L 531 -594 
L 0 -594 
L 1625 4666 
z
" transform="scale(0.015625)"/>
      <path id="DejaVuSans-69" d="M 603 3500 
L 1178 3500 
L 1178 0 
L 603 0 
L 603 3500 
z
M 603 4863 
L 1178 4863 
L 1178 4134 
L 603 4134 
L 603 4863 
z
" transform="scale(0.015625)"/>
      <path id="DejaVuSans-6f" d="M 1959 3097 
Q 1497 3097 1228 2736 
Q 959 2375 959 1747 
Q 959 1119 1226 758 
Q 1494 397 1959 397 
Q 2419 397 2687 759 
Q 2956 1122 2956 1747 
Q 2956 2369 2687 2733 
Q 2419 3097 1959 3097 
z
M 1959 3584 
Q 2709 3584 3137 3096 
Q 3566 2609 3566 1747 
Q 3566 888 3137 398 
Q 2709 -91 1959 -91 
Q 1206 -91 779 398 
Q 353 888 353 1747 
Q 353 2609 779 3096 
Q 1206 3584 1959 3584 
z
" transform="scale(0.015625)"/>
     </defs>
     <use xlink:href="#DejaVuSans-20"/>
     <use xlink:href="#DejaVuSans-67" transform="translate(31.787109 0)"/>
     <use xlink:href="#DejaVuSans-61" transform="translate(95.263672 0)"/>
     <use xlink:href="#DejaVuSans-7a" transform="translate(156.542969 0)"/>
     <use xlink:href="#DejaVuSans-65" transform="translate(209.033203 0)"/>
     <use xlink:href="#DejaVuSans-20" transform="translate(270.556641 0)"/>
     <use xlink:href="#DejaVuSans-2f" transform="translate(302.34375 0)"/>
     <use xlink:href="#DejaVuSans-20" transform="translate(336.035156 0)"/>
     <use xlink:href="#DejaVuSans-61" transform="translate(367.822266 0)"/>
     <use xlink:href="#DejaVuSans-74" transform="translate(429.101562 0)"/>
     <use xlink:href="#DejaVuSans-74" transform="translate(468.310547 0)"/>
     <use xlink:href="#DejaVuSans-65" transform="translate(507.519531 0)"/>
     <use xlink:href="#DejaVuSans-6e" transform="translate(569.042969 0)"/>
     <use xlink:href="#DejaVuSans-74" transform="translate(632.421875 0)"/>
     <use xlink:href="#DejaVuSans-69" transform="translate(671.630859 0)"/>
     <use xlink:href="#DejaVuSans-6f" transform="translate(699.414062 0)"/>
     <use xlink:href="#DejaVuSans-6e" transform="translate(760.595703 0)"/>
     <use xlink:href="#DejaVuSans-20" transform="translate(823.974609 0)"/>
     <use xlink:href="#DejaVuSans-2f" transform="translate(855.761719 0)"/>
     <use xlink:href="#DejaVuSans-20" transform="translate(889.453125 0)"/>
     <use xlink:href="#DejaVuSans-7a" transform="translate(921.240234 0)"/>
     <use xlink:href="#DejaVuSans-6f" transform="translate(973.730469 0)"/>
     <use xlink:href="#DejaVuSans-6e" transform="translate(1034.912109 0)"/>
     <use xlink:href="#DejaVuSans-65" transform="translate(1098.291016 0)"/>
    </g>
    <!--  faces_in_frame -->
    <g style="fill: #22282e" transform="translate(84.367706 227.385741) scale(0.075 -0.075)">
     <defs>
      <path id="DejaVuSans-66" d="M 2375 4863 
L 2375 4384 
L 1825 4384 
Q 1516 4384 1395 4259 
Q 1275 4134 1275 3809 
L 1275 3500 
L 2222 3500 
L 2222 3053 
L 1275 3053 
L 1275 0 
L 697 0 
L 697 3053 
L 147 3053 
L 147 3500 
L 697 3500 
L 697 3744 
Q 697 4328 969 4595 
Q 1241 4863 1831 4863 
L 2375 4863 
z
" transform="scale(0.015625)"/>
      <path id="DejaVuSans-63" d="M 3122 3366 
L 3122 2828 
Q 2878 2963 2633 3030 
Q 2388 3097 2138 3097 
Q 1578 3097 1268 2742 
Q 959 2388 959 1747 
Q 959 1106 1268 751 
Q 1578 397 2138 397 
Q 2388 397 2633 464 
Q 2878 531 3122 666 
L 3122 134 
Q 2881 22 2623 -34 
Q 2366 -91 2075 -91 
Q 1284 -91 818 406 
Q 353 903 353 1747 
Q 353 2603 823 3093 
Q 1294 3584 2113 3584 
Q 2378 3584 2631 3529 
Q 2884 3475 3122 3366 
z
" transform="scale(0.015625)"/>
     </defs>
     <use xlink:href="#DejaVuSans-20"/>
     <use xlink:href="#DejaVuSans-66" transform="translate(31.787109 0)"/>
     <use xlink:href="#DejaVuSans-61" transform="translate(66.992188 0)"/>
     <use xlink:href="#DejaVuSans-63" transform="translate(128.271484 0)"/>
     <use xlink:href="#DejaVuSans-65" transform="translate(183.251953 0)"/>
     <use xlink:href="#DejaVuSans-73" transform="translate(244.775391 0)"/>
     <use xlink:href="#DejaVuSans-5f" transform="translate(296.875 0)"/>
     <use xlink:href="#DejaVuSans-69" transform="translate(346.875 0)"/>
     <use xlink:href="#DejaVuSans-6e" transform="translate(374.658203 0)"/>
     <use xlink:href="#DejaVuSans-5f" transform="translate(438.037109 0)"/>
     <use xlink:href="#DejaVuSans-66" transform="translate(488.037109 0)"/>
     <use xlink:href="#DejaVuSans-72" transform="translate(523.242188 0)"/>
     <use xlink:href="#DejaVuSans-61" transform="translate(564.355469 0)"/>
     <use xlink:href="#DejaVuSans-6d" transform="translate(625.634766 0)"/>
     <use xlink:href="#DejaVuSans-65" transform="translate(723.046875 0)"/>
    </g>
   </g>
   <g id="patch_6">
    <path d="M 201.611204 113.616 
Q 214.630018 113.616 225.412764 113.616 
" style="fill: none; stroke: #000000; stroke-width: 2; stroke-linecap: round"/>
    <path d="M 221.012764 111.416 
L 225.412764 113.616 
L 221.012764 115.816 
z
" style="fill: #1f77b4; stroke: #000000; stroke-width: 2; stroke-linecap: round"/>
   </g>
   <g id="text_3">
    <!-- Salience -->
    <g style="fill: #22282e" transform="translate(300.348225 107.699806) scale(0.1 -0.1)">
     <defs>
      <path id="DejaVuSans-Bold-53" d="M 3834 4519 
L 3834 3531 
Q 3450 3703 3084 3790 
Q 2719 3878 2394 3878 
Q 1963 3878 1756 3759 
Q 1550 3641 1550 3391 
Q 1550 3203 1689 3098 
Q 1828 2994 2194 2919 
L 2706 2816 
Q 3484 2659 3812 2340 
Q 4141 2022 4141 1434 
Q 4141 663 3683 286 
Q 3225 -91 2284 -91 
Q 1841 -91 1394 -6 
Q 947 78 500 244 
L 500 1259 
Q 947 1022 1364 901 
Q 1781 781 2169 781 
Q 2563 781 2772 912 
Q 2981 1044 2981 1288 
Q 2981 1506 2839 1625 
Q 2697 1744 2272 1838 
L 1806 1941 
Q 1106 2091 782 2419 
Q 459 2747 459 3303 
Q 459 4000 909 4375 
Q 1359 4750 2203 4750 
Q 2588 4750 2994 4692 
Q 3400 4634 3834 4519 
z
" transform="scale(0.015625)"/>
      <path id="DejaVuSans-Bold-61" d="M 2106 1575 
Q 1756 1575 1579 1456 
Q 1403 1338 1403 1106 
Q 1403 894 1545 773 
Q 1688 653 1941 653 
Q 2256 653 2472 879 
Q 2688 1106 2688 1447 
L 2688 1575 
L 2106 1575 
z
M 3816 1997 
L 3816 0 
L 2688 0 
L 2688 519 
Q 2463 200 2181 54 
Q 1900 -91 1497 -91 
Q 953 -91 614 226 
Q 275 544 275 1050 
Q 275 1666 698 1953 
Q 1122 2241 2028 2241 
L 2688 2241 
L 2688 2328 
Q 2688 2594 2478 2717 
Q 2269 2841 1825 2841 
Q 1466 2841 1156 2769 
Q 847 2697 581 2553 
L 581 3406 
Q 941 3494 1303 3539 
Q 1666 3584 2028 3584 
Q 2975 3584 3395 3211 
Q 3816 2838 3816 1997 
z
" transform="scale(0.015625)"/>
      <path id="DejaVuSans-Bold-6c" d="M 538 4863 
L 1656 4863 
L 1656 0 
L 538 0 
L 538 4863 
z
" transform="scale(0.015625)"/>
      <path id="DejaVuSans-Bold-65" d="M 4031 1759 
L 4031 1441 
L 1416 1441 
Q 1456 1047 1700 850 
Q 1944 653 2381 653 
Q 2734 653 3104 758 
Q 3475 863 3866 1075 
L 3866 213 
Q 3469 63 3072 -14 
Q 2675 -91 2278 -91 
Q 1328 -91 801 392 
Q 275 875 275 1747 
Q 275 2603 792 3093 
Q 1309 3584 2216 3584 
Q 3041 3584 3536 3087 
Q 4031 2591 4031 1759 
z
M 2881 2131 
Q 2881 2450 2695 2645 
Q 2509 2841 2209 2841 
Q 1884 2841 1681 2658 
Q 1478 2475 1428 2131 
L 2881 2131 
z
" transform="scale(0.015625)"/>
      <path id="DejaVuSans-Bold-63" d="M 3366 3391 
L 3366 2478 
Q 3138 2634 2908 2709 
Q 2678 2784 2431 2784 
Q 1963 2784 1702 2511 
Q 1441 2238 1441 1747 
Q 1441 1256 1702 982 
Q 1963 709 2431 709 
Q 2694 709 2930 787 
Q 3166 866 3366 1019 
L 3366 103 
Q 3103 6 2833 -42 
Q 2563 -91 2291 -91 
Q 1344 -91 809 395 
Q 275 881 275 1747 
Q 275 2613 809 3098 
Q 1344 3584 2291 3584 
Q 2566 3584 2833 3536 
Q 3100 3488 3366 3391 
z
" transform="scale(0.015625)"/>
     </defs>
     <use xlink:href="#DejaVuSans-Bold-53"/>
     <use xlink:href="#DejaVuSans-Bold-61" transform="translate(72.021484 0)"/>
     <use xlink:href="#DejaVuSans-Bold-6c" transform="translate(139.501953 0)"/>
     <use xlink:href="#DejaVuSans-Bold-69" transform="translate(173.779297 0)"/>
     <use xlink:href="#DejaVuSans-Bold-65" transform="translate(208.056641 0)"/>
     <use xlink:href="#DejaVuSans-Bold-6e" transform="translate(275.878906 0)"/>
     <use xlink:href="#DejaVuSans-Bold-63" transform="translate(347.070312 0)"/>
     <use xlink:href="#DejaVuSans-Bold-65" transform="translate(406.347656 0)"/>
    </g>
    <!-- (salience_network.db) -->
    <g style="fill: #22282e" transform="translate(261.659944 118.897619) scale(0.1 -0.1)">
     <defs>
      <path id="DejaVuSans-Bold-5f" d="M 3200 -916 
L 3200 -1509 
L 0 -1509 
L 0 -916 
L 3200 -916 
z
" transform="scale(0.015625)"/>
      <path id="DejaVuSans-Bold-74" d="M 1759 4494 
L 1759 3500 
L 2913 3500 
L 2913 2700 
L 1759 2700 
L 1759 1216 
Q 1759 972 1856 886 
Q 1953 800 2241 800 
L 2816 800 
L 2816 0 
L 1856 0 
Q 1194 0 917 276 
Q 641 553 641 1216 
L 641 2700 
L 84 2700 
L 84 3500 
L 641 3500 
L 641 4494 
L 1759 4494 
z
" transform="scale(0.015625)"/>
      <path id="DejaVuSans-Bold-77" d="M 225 3500 
L 1313 3500 
L 1900 1088 
L 2491 3500 
L 3425 3500 
L 4013 1113 
L 4603 3500 
L 5691 3500 
L 4769 0 
L 3547 0 
L 2956 2406 
L 2369 0 
L 1147 0 
L 225 3500 
z
" transform="scale(0.015625)"/>
      <path id="DejaVuSans-Bold-72" d="M 3138 2547 
Q 2991 2616 2845 2648 
Q 2700 2681 2553 2681 
Q 2122 2681 1889 2404 
Q 1656 2128 1656 1613 
L 1656 0 
L 538 0 
L 538 3500 
L 1656 3500 
L 1656 2925 
Q 1872 3269 2151 3426 
Q 2431 3584 2822 3584 
Q 2878 3584 2943 3579 
Q 3009 3575 3134 3559 
L 3138 2547 
z
" transform="scale(0.015625)"/>
      <path id="DejaVuSans-Bold-6b" d="M 538 4863 
L 1656 4863 
L 1656 2216 
L 2944 3500 
L 4244 3500 
L 2534 1894 
L 4378 0 
L 3022 0 
L 1656 1459 
L 1656 0 
L 538 0 
L 538 4863 
z
" transform="scale(0.015625)"/>
     </defs>
     <use xlink:href="#DejaVuSans-Bold-28"/>
     <use xlink:href="#DejaVuSans-Bold-73" transform="translate(45.703125 0)"/>
     <use xlink:href="#DejaVuSans-Bold-61" transform="translate(105.224609 0)"/>
     <use xlink:href="#DejaVuSans-Bold-6c" transform="translate(172.705078 0)"/>
     <use xlink:href="#DejaVuSans-Bold-69" transform="translate(206.982422 0)"/>
     <use xlink:href="#DejaVuSans-Bold-65" transform="translate(241.259766 0)"/>
     <use xlink:href="#DejaVuSans-Bold-6e" transform="translate(309.082031 0)"/>
     <use xlink:href="#DejaVuSans-Bold-63" transform="translate(380.273438 0)"/>
     <use xlink:href="#DejaVuSans-Bold-65" transform="translate(439.550781 0)"/>
     <use xlink:href="#DejaVuSans-Bold-5f" transform="translate(507.373047 0)"/>
     <use xlink:href="#DejaVuSans-Bold-6e" transform="translate(557.373047 0)"/>
     <use xlink:href="#DejaVuSans-Bold-65" transform="translate(628.564453 0)"/>
     <use xlink:href="#DejaVuSans-Bold-74" transform="translate(696.386719 0)"/>
     <use xlink:href="#DejaVuSans-Bold-77" transform="translate(744.189453 0)"/>
     <use xlink:href="#DejaVuSans-Bold-6f" transform="translate(836.572266 0)"/>
     <use xlink:href="#DejaVuSans-Bold-72" transform="translate(905.273438 0)"/>
     <use xlink:href="#DejaVuSans-Bold-6b" transform="translate(954.589844 0)"/>
     <use xlink:href="#DejaVuSans-Bold-2e" transform="translate(1021.09375 0)"/>
     <use xlink:href="#DejaVuSans-Bold-64" transform="translate(1059.082031 0)"/>
     <use xlink:href="#DejaVuSans-Bold-62" transform="translate(1130.664062 0)"/>
     <use xlink:href="#DejaVuSans-Bold-29" transform="translate(1202.246094 0)"/>
    </g>
   </g>
   <g id="text_4">
    <!-- face_ips_events -->
    <g style="fill: #22282e" transform="translate(294.309553 210.380428) scale(0.075 -0.075)">
     <defs>
      <path id="DejaVuSans-70" d="M 1159 525 
L 1159 -1331 
L 581 -1331 
L 581 3500 
L 1159 3500 
L 1159 2969 
Q 1341 3281 1617 3432 
Q 1894 3584 2278 3584 
Q 2916 3584 3314 3078 
Q 3713 2572 3713 1747 
Q 3713 922 3314 415 
Q 2916 -91 2278 -91 
Q 1894 -91 1617 61 
Q 1341 213 1159 525 
z
M 3116 1747 
Q 3116 2381 2855 2742 
Q 2594 3103 2138 3103 
Q 1681 3103 1420 2742 
Q 1159 2381 1159 1747 
Q 1159 1113 1420 752 
Q 1681 391 2138 391 
Q 2594 391 2855 752 
Q 3116 1113 3116 1747 
z
" transform="scale(0.015625)"/>
     </defs>
     <use xlink:href="#DejaVuSans-66"/>
     <use xlink:href="#DejaVuSans-61" transform="translate(35.205078 0)"/>
     <use xlink:href="#DejaVuSans-63" transform="translate(96.484375 0)"/>
     <use xlink:href="#DejaVuSans-65" transform="translate(151.464844 0)"/>
     <use xlink:href="#DejaVuSans-5f" transform="translate(212.988281 0)"/>
     <use xlink:href="#DejaVuSans-69" transform="translate(262.988281 0)"/>
     <use xlink:href="#DejaVuSans-70" transform="translate(290.771484 0)"/>
     <use xlink:href="#DejaVuSans-73" transform="translate(354.248047 0)"/>
     <use xlink:href="#DejaVuSans-5f" transform="translate(406.347656 0)"/>
     <use xlink:href="#DejaVuSans-65" transform="translate(456.347656 0)"/>
     <use xlink:href="#DejaVuSans-76" transform="translate(517.871094 0)"/>
     <use xlink:href="#DejaVuSans-65" transform="translate(577.050781 0)"/>
     <use xlink:href="#DejaVuSans-6e" transform="translate(638.574219 0)"/>
     <use xlink:href="#DejaVuSans-74" transform="translate(701.953125 0)"/>
     <use xlink:href="#DejaVuSans-73" transform="translate(741.162109 0)"/>
    </g>
    <!--  IPS = w·[prox,cent,gaze] -->
    <g style="fill: #22282e" transform="translate(276.618342 218.987381) scale(0.075 -0.075)">
     <defs>
      <path id="DejaVuSans-49" d="M 628 4666 
L 1259 4666 
L 1259 0 
L 628 0 
L 628 4666 
z
" transform="scale(0.015625)"/>
      <path id="DejaVuSans-50" d="M 1259 4147 
L 1259 2394 
L 2053 2394 
Q 2494 2394 2734 2622 
Q 2975 2850 2975 3272 
Q 2975 3691 2734 3919 
Q 2494 4147 2053 4147 
L 1259 4147 
z
M 628 4666 
L 2053 4666 
Q 2838 4666 3239 4311 
Q 3641 3956 3641 3272 
Q 3641 2581 3239 2228 
Q 2838 1875 2053 1875 
L 1259 1875 
L 1259 0 
L 628 0 
L 628 4666 
z
" transform="scale(0.015625)"/>
      <path id="DejaVuSans-53" d="M 3425 4513 
L 3425 3897 
Q 3066 4069 2747 4153 
Q 2428 4238 2131 4238 
Q 1616 4238 1336 4038 
Q 1056 3838 1056 3469 
Q 1056 3159 1242 3001 
Q 1428 2844 1947 2747 
L 2328 2669 
Q 3034 2534 3370 2195 
Q 3706 1856 3706 1288 
Q 3706 609 3251 259 
Q 2797 -91 1919 -91 
Q 1588 -91 1214 -16 
Q 841 59 441 206 
L 441 856 
Q 825 641 1194 531 
Q 1563 422 1919 422 
Q 2459 422 2753 634 
Q 3047 847 3047 1241 
Q 3047 1584 2836 1778 
Q 2625 1972 2144 2069 
L 1759 2144 
Q 1053 2284 737 2584 
Q 422 2884 422 3419 
Q 422 4038 858 4394 
Q 1294 4750 2059 4750 
Q 2388 4750 2728 4690 
Q 3069 4631 3425 4513 
z
" transform="scale(0.015625)"/>
      <path id="DejaVuSans-3d" d="M 678 2906 
L 4684 2906 
L 4684 2381 
L 678 2381 
L 678 2906 
z
M 678 1631 
L 4684 1631 
L 4684 1100 
L 678 1100 
L 678 1631 
z
" transform="scale(0.015625)"/>
      <path id="DejaVuSans-77" d="M 269 3500 
L 844 3500 
L 1563 769 
L 2278 3500 
L 2956 3500 
L 3675 769 
L 4391 3500 
L 4966 3500 
L 4050 0 
L 3372 0 
L 2619 2869 
L 1863 0 
L 1184 0 
L 269 3500 
z
" transform="scale(0.015625)"/>
      <path id="DejaVuSans-b7" d="M 684 2619 
L 1344 2619 
L 1344 1825 
L 684 1825 
L 684 2619 
z
" transform="scale(0.015625)"/>
      <path id="DejaVuSans-5b" d="M 550 4863 
L 1875 4863 
L 1875 4416 
L 1125 4416 
L 1125 -397 
L 1875 -397 
L 1875 -844 
L 550 -844 
L 550 4863 
z
" transform="scale(0.015625)"/>
      <path id="DejaVuSans-78" d="M 3513 3500 
L 2247 1797 
L 3578 0 
L 2900 0 
L 1881 1375 
L 863 0 
L 184 0 
L 1544 1831 
L 300 3500 
L 978 3500 
L 1906 2253 
L 2834 3500 
L 3513 3500 
z
" transform="scale(0.015625)"/>
      <path id="DejaVuSans-2c" d="M 750 794 
L 1409 794 
L 1409 256 
L 897 -744 
L 494 -744 
L 750 256 
L 750 794 
z
" transform="scale(0.015625)"/>
      <path id="DejaVuSans-5d" d="M 1947 4863 
L 1947 -844 
L 622 -844 
L 622 -397 
L 1369 -397 
L 1369 4416 
L 622 4416 
L 622 4863 
L 1947 4863 
z
" transform="scale(0.015625)"/>
     </defs>
     <use xlink:href="#DejaVuSans-20"/>
     <use xlink:href="#DejaVuSans-49" transform="translate(31.787109 0)"/>
     <use xlink:href="#DejaVuSans-50" transform="translate(61.279297 0)"/>
     <use xlink:href="#DejaVuSans-53" transform="translate(121.582031 0)"/>
     <use xlink:href="#DejaVuSans-20" transform="translate(185.058594 0)"/>
     <use xlink:href="#DejaVuSans-3d" transform="translate(216.845703 0)"/>
     <use xlink:href="#DejaVuSans-20" transform="translate(300.634766 0)"/>
     <use xlink:href="#DejaVuSans-77" transform="translate(332.421875 0)"/>
     <use xlink:href="#DejaVuSans-b7" transform="translate(414.208984 0)"/>
     <use xlink:href="#DejaVuSans-5b" transform="translate(445.996094 0)"/>
     <use xlink:href="#DejaVuSans-70" transform="translate(485.009766 0)"/>
     <use xlink:href="#DejaVuSans-72" transform="translate(548.486328 0)"/>
     <use xlink:href="#DejaVuSans-6f" transform="translate(587.349609 0)"/>
     <use xlink:href="#DejaVuSans-78" transform="translate(645.40625 0)"/>
     <use xlink:href="#DejaVuSans-2c" transform="translate(704.585938 0)"/>
     <use xlink:href="#DejaVuSans-63" transform="translate(736.373047 0)"/>
     <use xlink:href="#DejaVuSans-65" transform="translate(791.353516 0)"/>
     <use xlink:href="#DejaVuSans-6e" transform="translate(852.876953 0)"/>
     <use xlink:href="#DejaVuSans-74" transform="translate(916.255859 0)"/>
     <use xlink:href="#DejaVuSans-2c" transform="translate(955.464844 0)"/>
     <use xlink:href="#DejaVuSans-67" transform="translate(987.251953 0)"/>
     <use xlink:href="#DejaVuSans-61" transform="translate(1050.728516 0)"/>
     <use xlink:href="#DejaVuSans-7a" transform="translate(1112.007812 0)"/>
     <use xlink:href="#DejaVuSans-65" transform="translate(1164.498047 0)"/>
     <use xlink:href="#DejaVuSans-5d" transform="translate(1226.021484 0)"/>
    </g>
    <!--  target_selections, attempts -->
    <g style="fill: #22282e" transform="translate(271.393537 227.385741) scale(0.075 -0.075)">
     <use xlink:href="#DejaVuSans-20"/>
     <use xlink:href="#DejaVuSans-74" transform="translate(31.787109 0)"/>
     <use xlink:href="#DejaVuSans-61" transform="translate(70.996094 0)"/>
     <use xlink:href="#DejaVuSans-72" transform="translate(132.275391 0)"/>
     <use xlink:href="#DejaVuSans-67" transform="translate(171.638672 0)"/>
     <use xlink:href="#DejaVuSans-65" transform="translate(235.115234 0)"/>
     <use xlink:href="#DejaVuSans-74" transform="translate(296.638672 0)"/>
     <use xlink:href="#DejaVuSans-5f" transform="translate(335.847656 0)"/>
     <use xlink:href="#DejaVuSans-73" transform="translate(385.847656 0)"/>
     <use xlink:href="#DejaVuSans-65" transform="translate(437.947266 0)"/>
     <use xlink:href="#DejaVuSans-6c" transform="translate(499.470703 0)"/>
     <use xlink:href="#DejaVuSans-65" transform="translate(527.253906 0)"/>
     <use xlink:href="#DejaVuSans-63" transform="translate(588.777344 0)"/>
     <use xlink:href="#DejaVuSans-74" transform="translate(643.757812 0)"/>
     <use xlink:href="#DejaVuSans-69" transform="translate(682.966797 0)"/>
     <use xlink:href="#DejaVuSans-6f" transform="translate(710.75 0)"/>
     <use xlink:href="#DejaVuSans-6e" transform="translate(771.931641 0)"/>
     <use xlink:href="#DejaVuSans-73" transform="translate(835.310547 0)"/>
     <use xlink:href="#DejaVuSans-2c" transform="translate(887.410156 0)"/>
     <use xlink:href="#DejaVuSans-20" transform="translate(919.197266 0)"/>
     <use xlink:href="#DejaVuSans-61" transform="translate(950.984375 0)"/>
     <use xlink:href="#DejaVuSans-74" transform="translate(1012.263672 0)"/>
     <use xlink:href="#DejaVuSans-74" transform="translate(1051.472656 0)"/>
     <use xlink:href="#DejaVuSans-65" transform="translate(1090.681641 0)"/>
     <use xlink:href="#DejaVuSans-6d" transform="translate(1152.205078 0)"/>
     <use xlink:href="#DejaVuSans-70" transform="translate(1249.617188 0)"/>
     <use xlink:href="#DejaVuSans-74" transform="translate(1313.09375 0)"/>
     <use xlink:href="#DejaVuSans-73" transform="translate(1352.302734 0)"/>
    </g>
   </g>
   <g id="patch_7">
    <path d="M 411.880004 113.616 
Q 424.898818 113.616 435.681564 113.616 
" style="fill: none; stroke: #000000; stroke-width: 2; stroke-linecap: round"/>
    <path d="M 431.281564 111.416 
L 435.681564 113.616 
L 431.281564 115.816 
z
" style="fill: #1f77b4; stroke: #000000; stroke-width: 2; stroke-linecap: round"/>
   </g>
   <g id="text_5">
    <!-- Executive -->
    <g style="fill: #22282e" transform="translate(507.016244 107.699806) scale(0.1 -0.1)">
     <defs>
      <path id="DejaVuSans-Bold-45" d="M 588 4666 
L 3834 4666 
L 3834 3756 
L 1791 3756 
L 1791 2888 
L 3713 2888 
L 3713 1978 
L 1791 1978 
L 1791 909 
L 3903 909 
L 3903 0 
L 588 0 
L 588 4666 
z
" transform="scale(0.015625)"/>
      <path id="DejaVuSans-Bold-78" d="M 1422 1791 
L 159 3500 
L 1344 3500 
L 2059 2463 
L 2784 3500 
L 3969 3500 
L 2706 1797 
L 4031 0 
L 2847 0 
L 2059 1106 
L 1281 0 
L 97 0 
L 1422 1791 
z
" transform="scale(0.015625)"/>
      <path id="DejaVuSans-Bold-75" d="M 500 1363 
L 500 3500 
L 1625 3500 
L 1625 3150 
Q 1625 2866 1622 2436 
Q 1619 2006 1619 1863 
Q 1619 1441 1641 1255 
Q 1663 1069 1716 984 
Q 1784 875 1895 815 
Q 2006 756 2150 756 
Q 2500 756 2700 1025 
Q 2900 1294 2900 1772 
L 2900 3500 
L 4019 3500 
L 4019 0 
L 2900 0 
L 2900 506 
Q 2647 200 2364 54 
Q 2081 -91 1741 -91 
Q 1134 -91 817 281 
Q 500 653 500 1363 
z
" transform="scale(0.015625)"/>
     </defs>
     <use xlink:href="#DejaVuSans-Bold-45"/>
     <use xlink:href="#DejaVuSans-Bold-78" transform="translate(68.310547 0)"/>
     <use xlink:href="#DejaVuSans-Bold-65" transform="translate(132.8125 0)"/>
     <use xlink:href="#DejaVuSans-Bold-63" transform="translate(200.634766 0)"/>
     <use xlink:href="#DejaVuSans-Bold-75" transform="translate(259.912109 0)"/>
     <use xlink:href="#DejaVuSans-Bold-74" transform="translate(331.103516 0)"/>
     <use xlink:href="#DejaVuSans-Bold-69" transform="translate(378.90625 0)"/>
     <use xlink:href="#DejaVuSans-Bold-76" transform="translate(413.183594 0)"/>
     <use xlink:href="#DejaVuSans-Bold-65" transform="translate(478.369141 0)"/>
    </g>
    <!-- (executive_control.db) -->
    <g style="fill: #22282e" transform="translate(470.949837 118.897619) scale(0.1 -0.1)">
     <use xlink:href="#DejaVuSans-Bold-28"/>
     <use xlink:href="#DejaVuSans-Bold-65" transform="translate(45.703125 0)"/>
     <use xlink:href="#DejaVuSans-Bold-78" transform="translate(113.525391 0)"/>
     <use xlink:href="#DejaVuSans-Bold-65" transform="translate(178.027344 0)"/>
     <use xlink:href="#DejaVuSans-Bold-63" transform="translate(245.849609 0)"/>
     <use xlink:href="#DejaVuSans-Bold-75" transform="translate(305.126953 0)"/>
     <use xlink:href="#DejaVuSans-Bold-74" transform="translate(376.318359 0)"/>
     <use xlink:href="#DejaVuSans-Bold-69" transform="translate(424.121094 0)"/>
     <use xlink:href="#DejaVuSans-Bold-76" transform="translate(458.398438 0)"/>
     <use xlink:href="#DejaVuSans-Bold-65" transform="translate(523.583984 0)"/>
     <use xlink:href="#DejaVuSans-Bold-5f" transform="translate(591.40625 0)"/>
     <use xlink:href="#DejaVuSans-Bold-63" transform="translate(641.40625 0)"/>
     <use xlink:href="#DejaVuSans-Bold-6f" transform="translate(700.683594 0)"/>
     <use xlink:href="#DejaVuSans-Bold-6e" transform="translate(769.384766 0)"/>
     <use xlink:href="#DejaVuSans-Bold-74" transform="translate(840.576172 0)"/>
     <use xlink:href="#DejaVuSans-Bold-72" transform="translate(888.378906 0)"/>
     <use xlink:href="#DejaVuSans-Bold-6f" transform="translate(937.695312 0)"/>
     <use xlink:href="#DejaVuSans-Bold-6c" transform="translate(1006.396484 0)"/>
     <use xlink:href="#DejaVuSans-Bold-2e" transform="translate(1040.673828 0)"/>
     <use xlink:href="#DejaVuSans-Bold-64" transform="translate(1078.662109 0)"/>
     <use xlink:href="#DejaVuSans-Bold-62" transform="translate(1150.244141 0)"/>
     <use xlink:href="#DejaVuSans-Bold-29" transform="translate(1221.826172 0)"/>
    </g>
   </g>
   <g id="text_6">
    <!-- HungerModel drain/feed -->
    <g style="fill: #22282e" transform="translate(488.854134 210.380428) scale(0.075 -0.075)">
     <defs>
      <path id="DejaVuSans-48" d="M 628 4666 
L 1259 4666 
L 1259 2753 
L 3553 2753 
L 3553 4666 
L 4184 4666 
L 4184 0 
L 3553 0 
L 3553 2222 
L 1259 2222 
L 1259 0 
L 628 0 
L 628 4666 
z
" transform="scale(0.015625)"/>
      <path id="DejaVuSans-75" d="M 544 1381 
L 544 3500 
L 1119 3500 
L 1119 1403 
Q 1119 906 1312 657 
Q 1506 409 1894 409 
Q 2359 409 2629 706 
Q 2900 1003 2900 1516 
L 2900 3500 
L 3475 3500 
L 3475 0 
L 2900 0 
L 2900 538 
Q 2691 219 2414 64 
Q 2138 -91 1772 -91 
Q 1169 -91 856 284 
Q 544 659 544 1381 
z
M 1991 3584 
L 1991 3584 
z
" transform="scale(0.015625)"/>
      <path id="DejaVuSans-4d" d="M 628 4666 
L 1569 4666 
L 2759 1491 
L 3956 4666 
L 4897 4666 
L 4897 0 
L 4281 0 
L 4281 4097 
L 3078 897 
L 2444 897 
L 1241 4097 
L 1241 0 
L 628 0 
L 628 4666 
z
" transform="scale(0.015625)"/>
     </defs>
     <use xlink:href="#DejaVuSans-48"/>
     <use xlink:href="#DejaVuSans-75" transform="translate(75.195312 0)"/>
     <use xlink:href="#DejaVuSans-6e" transform="translate(138.574219 0)"/>
     <use xlink:href="#DejaVuSans-67" transform="translate(201.953125 0)"/>
     <use xlink:href="#DejaVuSans-65" transform="translate(265.429688 0)"/>
     <use xlink:href="#DejaVuSans-72" transform="translate(326.953125 0)"/>
     <use xlink:href="#DejaVuSans-4d" transform="translate(368.066406 0)"/>
     <use xlink:href="#DejaVuSans-6f" transform="translate(454.345703 0)"/>
     <use xlink:href="#DejaVuSans-64" transform="translate(515.527344 0)"/>
     <use xlink:href="#DejaVuSans-65" transform="translate(579.003906 0)"/>
     <use xlink:href="#DejaVuSans-6c" transform="translate(640.527344 0)"/>
     <use xlink:href="#DejaVuSans-20" transform="translate(668.310547 0)"/>
     <use xlink:href="#DejaVuSans-64" transform="translate(700.097656 0)"/>
     <use xlink:href="#DejaVuSans-72" transform="translate(763.574219 0)"/>
     <use xlink:href="#DejaVuSans-61" transform="translate(804.6875 0)"/>
     <use xlink:href="#DejaVuSans-69" transform="translate(865.966797 0)"/>
     <use xlink:href="#DejaVuSans-6e" transform="translate(893.75 0)"/>
     <use xlink:href="#DejaVuSans-2f" transform="translate(957.128906 0)"/>
     <use xlink:href="#DejaVuSans-66" transform="translate(990.820312 0)"/>
     <use xlink:href="#DejaVuSans-65" transform="translate(1026.025391 0)"/>
     <use xlink:href="#DejaVuSans-65" transform="translate(1087.548828 0)"/>
     <use xlink:href="#DejaVuSans-64" transform="translate(1149.072266 0)"/>
    </g>
    <!--  interactions + turns -->
    <g style="fill: #22282e" transform="translate(495.721908 218.778788) scale(0.075 -0.075)">
     <defs>
      <path id="DejaVuSans-2b" d="M 2944 4013 
L 2944 2272 
L 4684 2272 
L 4684 1741 
L 2944 1741 
L 2944 0 
L 2419 0 
L 2419 1741 
L 678 1741 
L 678 2272 
L 2419 2272 
L 2419 4013 
L 2944 4013 
z
" transform="scale(0.015625)"/>
     </defs>
     <use xlink:href="#DejaVuSans-20"/>
     <use xlink:href="#DejaVuSans-69" transform="translate(31.787109 0)"/>
     <use xlink:href="#DejaVuSans-6e" transform="translate(59.570312 0)"/>
     <use xlink:href="#DejaVuSans-74" transform="translate(122.949219 0)"/>
     <use xlink:href="#DejaVuSans-65" transform="translate(162.158203 0)"/>
     <use xlink:href="#DejaVuSans-72" transform="translate(223.681641 0)"/>
     <use xlink:href="#DejaVuSans-61" transform="translate(264.794922 0)"/>
     <use xlink:href="#DejaVuSans-63" transform="translate(326.074219 0)"/>
     <use xlink:href="#DejaVuSans-74" transform="translate(381.054688 0)"/>
     <use xlink:href="#DejaVuSans-69" transform="translate(420.263672 0)"/>
     <use xlink:href="#DejaVuSans-6f" transform="translate(448.046875 0)"/>
     <use xlink:href="#DejaVuSans-6e" transform="translate(509.228516 0)"/>
     <use xlink:href="#DejaVuSans-73" transform="translate(572.607422 0)"/>
     <use xlink:href="#DejaVuSans-20" transform="translate(624.707031 0)"/>
     <use xlink:href="#DejaVuSans-2b" transform="translate(656.494141 0)"/>
     <use xlink:href="#DejaVuSans-20" transform="translate(740.283203 0)"/>
     <use xlink:href="#DejaVuSans-74" transform="translate(772.070312 0)"/>
     <use xlink:href="#DejaVuSans-75" transform="translate(811.279297 0)"/>
     <use xlink:href="#DejaVuSans-72" transform="translate(874.658203 0)"/>
     <use xlink:href="#DejaVuSans-6e" transform="translate(914.021484 0)"/>
     <use xlink:href="#DejaVuSans-73" transform="translate(977.400391 0)"/>
    </g>
    <!--  hunger_level_events -->
    <g style="fill: #22282e" transform="translate(494.472689 227.177147) scale(0.075 -0.075)">
     <defs>
      <path id="DejaVuSans-68" d="M 3513 2113 
L 3513 0 
L 2938 0 
L 2938 2094 
Q 2938 2591 2744 2837 
Q 2550 3084 2163 3084 
Q 1697 3084 1428 2787 
Q 1159 2491 1159 1978 
L 1159 0 
L 581 0 
L 581 4863 
L 1159 4863 
L 1159 2956 
Q 1366 3272 1645 3428 
Q 1925 3584 2291 3584 
Q 2894 3584 3203 3211 
Q 3513 2838 3513 2113 
z
" transform="scale(0.015625)"/>
     </defs>
     <use xlink:href="#DejaVuSans-20"/>
     <use xlink:href="#DejaVuSans-68" transform="translate(31.787109 0)"/>
     <use xlink:href="#DejaVuSans-75" transform="translate(95.166016 0)"/>
     <use xlink:href="#DejaVuSans-6e" transform="translate(158.544922 0)"/>
     <use xlink:href="#DejaVuSans-67" transform="translate(221.923828 0)"/>
     <use xlink:href="#DejaVuSans-65" transform="translate(285.400391 0)"/>
     <use xlink:href="#DejaVuSans-72" transform="translate(346.923828 0)"/>
     <use xlink:href="#DejaVuSans-5f" transform="translate(388.037109 0)"/>
     <use xlink:href="#DejaVuSans-6c" transform="translate(438.037109 0)"/>
     <use xlink:href="#DejaVuSans-65" transform="translate(465.820312 0)"/>
     <use xlink:href="#DejaVuSans-76" transform="translate(527.34375 0)"/>
     <use xlink:href="#DejaVuSans-65" transform="translate(586.523438 0)"/>
     <use xlink:href="#DejaVuSans-6c" transform="translate(648.046875 0)"/>
     <use xlink:href="#DejaVuSans-5f" transform="translate(675.830078 0)"/>
     <use xlink:href="#DejaVuSans-65" transform="translate(725.830078 0)"/>
     <use xlink:href="#DejaVuSans-76" transform="translate(787.353516 0)"/>
     <use xlink:href="#DejaVuSans-65" transform="translate(846.533203 0)"/>
     <use xlink:href="#DejaVuSans-6e" transform="translate(908.056641 0)"/>
     <use xlink:href="#DejaVuSans-74" transform="translate(971.435547 0)"/>
     <use xlink:href="#DejaVuSans-73" transform="translate(1010.644531 0)"/>
    </g>
   </g>
   <g id="patch_8">
    <path d="M 622.148804 113.616 
Q 635.167618 113.616 645.950364 113.616 
" style="fill: none; stroke: #000000; stroke-width: 2; stroke-linecap: round"/>
    <path d="M 641.550364 111.416 
L 645.950364 113.616 
L 641.550364 115.816 
z
" style="fill: #1f77b4; stroke: #000000; stroke-width: 2; stroke-linecap: round"/>
   </g>
   <g id="text_7">
    <!-- Remote/Telegram -->
    <g style="fill: #22282e" transform="translate(695.22645 107.660744) scale(0.1 -0.1)">
     <defs>
      <path id="DejaVuSans-Bold-52" d="M 2297 2597 
Q 2675 2597 2839 2737 
Q 3003 2878 3003 3200 
Q 3003 3519 2839 3656 
Q 2675 3794 2297 3794 
L 1791 3794 
L 1791 2597 
L 2297 2597 
z
M 1791 1766 
L 1791 0 
L 588 0 
L 588 4666 
L 2425 4666 
Q 3347 4666 3776 4356 
Q 4206 4047 4206 3378 
Q 4206 2916 3982 2619 
Q 3759 2322 3309 2181 
Q 3556 2125 3751 1926 
Q 3947 1728 4147 1325 
L 4800 0 
L 3519 0 
L 2950 1159 
Q 2778 1509 2601 1637 
Q 2425 1766 2131 1766 
L 1791 1766 
z
" transform="scale(0.015625)"/>
      <path id="DejaVuSans-Bold-6d" d="M 3781 2919 
Q 3994 3244 4286 3414 
Q 4578 3584 4928 3584 
Q 5531 3584 5847 3212 
Q 6163 2841 6163 2131 
L 6163 0 
L 5038 0 
L 5038 1825 
Q 5041 1866 5042 1909 
Q 5044 1953 5044 2034 
Q 5044 2406 4934 2573 
Q 4825 2741 4581 2741 
Q 4263 2741 4089 2478 
Q 3916 2216 3909 1719 
L 3909 0 
L 2784 0 
L 2784 1825 
Q 2784 2406 2684 2573 
Q 2584 2741 2328 2741 
Q 2006 2741 1831 2477 
Q 1656 2213 1656 1722 
L 1656 0 
L 531 0 
L 531 3500 
L 1656 3500 
L 1656 2988 
Q 1863 3284 2130 3434 
Q 2397 3584 2719 3584 
Q 3081 3584 3359 3409 
Q 3638 3234 3781 2919 
z
" transform="scale(0.015625)"/>
      <path id="DejaVuSans-Bold-2f" d="M 1644 4666 
L 2338 4666 
L 691 -594 
L 0 -594 
L 1644 4666 
z
" transform="scale(0.015625)"/>
      <path id="DejaVuSans-Bold-54" d="M 31 4666 
L 4331 4666 
L 4331 3756 
L 2784 3756 
L 2784 0 
L 1581 0 
L 1581 3756 
L 31 3756 
L 31 4666 
z
" transform="scale(0.015625)"/>
      <path id="DejaVuSans-Bold-67" d="M 2919 594 
Q 2688 288 2409 144 
Q 2131 0 1766 0 
Q 1125 0 706 504 
Q 288 1009 288 1791 
Q 288 2575 706 3076 
Q 1125 3578 1766 3578 
Q 2131 3578 2409 3434 
Q 2688 3291 2919 2981 
L 2919 3500 
L 4044 3500 
L 4044 353 
Q 4044 -491 3511 -936 
Q 2978 -1381 1966 -1381 
Q 1638 -1381 1331 -1331 
Q 1025 -1281 716 -1178 
L 716 -306 
Q 1009 -475 1290 -558 
Q 1572 -641 1856 -641 
Q 2406 -641 2662 -400 
Q 2919 -159 2919 353 
L 2919 594 
z
M 2181 2772 
Q 1834 2772 1640 2515 
Q 1447 2259 1447 1791 
Q 1447 1309 1634 1061 
Q 1822 813 2181 813 
Q 2531 813 2725 1069 
Q 2919 1325 2919 1791 
Q 2919 2259 2725 2515 
Q 2531 2772 2181 2772 
z
" transform="scale(0.015625)"/>
     </defs>
     <use xlink:href="#DejaVuSans-Bold-52"/>
     <use xlink:href="#DejaVuSans-Bold-65" transform="translate(77.001953 0)"/>
     <use xlink:href="#DejaVuSans-Bold-6d" transform="translate(144.824219 0)"/>
     <use xlink:href="#DejaVuSans-Bold-6f" transform="translate(249.023438 0)"/>
     <use xlink:href="#DejaVuSans-Bold-74" transform="translate(317.724609 0)"/>
     <use xlink:href="#DejaVuSans-Bold-65" transform="translate(365.527344 0)"/>
     <use xlink:href="#DejaVuSans-Bold-2f" transform="translate(433.349609 0)"/>
     <use xlink:href="#DejaVuSans-Bold-54" transform="translate(469.873047 0)"/>
     <use xlink:href="#DejaVuSans-Bold-65" transform="translate(524.835938 0)"/>
     <use xlink:href="#DejaVuSans-Bold-6c" transform="translate(592.658203 0)"/>
     <use xlink:href="#DejaVuSans-Bold-65" transform="translate(626.935547 0)"/>
     <use xlink:href="#DejaVuSans-Bold-67" transform="translate(694.757812 0)"/>
     <use xlink:href="#DejaVuSans-Bold-72" transform="translate(766.339844 0)"/>
     <use xlink:href="#DejaVuSans-Bold-61" transform="translate(815.65625 0)"/>
     <use xlink:href="#DejaVuSans-Bold-6d" transform="translate(883.136719 0)"/>
    </g>
    <!-- (chat_bot.db) -->
    <g style="fill: #22282e" transform="translate(706.77645 118.936681) scale(0.1 -0.1)">
     <defs>
      <path id="DejaVuSans-Bold-68" d="M 4056 2131 
L 4056 0 
L 2931 0 
L 2931 347 
L 2931 1625 
Q 2931 2084 2911 2256 
Q 2891 2428 2841 2509 
Q 2775 2619 2662 2680 
Q 2550 2741 2406 2741 
Q 2056 2741 1856 2470 
Q 1656 2200 1656 1722 
L 1656 0 
L 538 0 
L 538 4863 
L 1656 4863 
L 1656 2988 
Q 1909 3294 2193 3439 
Q 2478 3584 2822 3584 
Q 3428 3584 3742 3212 
Q 4056 2841 4056 2131 
z
" transform="scale(0.015625)"/>
     </defs>
     <use xlink:href="#DejaVuSans-Bold-28"/>
     <use xlink:href="#DejaVuSans-Bold-63" transform="translate(45.703125 0)"/>
     <use xlink:href="#DejaVuSans-Bold-68" transform="translate(104.980469 0)"/>
     <use xlink:href="#DejaVuSans-Bold-61" transform="translate(176.171875 0)"/>
     <use xlink:href="#DejaVuSans-Bold-74" transform="translate(243.652344 0)"/>
     <use xlink:href="#DejaVuSans-Bold-5f" transform="translate(291.455078 0)"/>
     <use xlink:href="#DejaVuSans-Bold-62" transform="translate(341.455078 0)"/>
     <use xlink:href="#DejaVuSans-Bold-6f" transform="translate(413.037109 0)"/>
     <use xlink:href="#DejaVuSans-Bold-74" transform="translate(481.738281 0)"/>
     <use xlink:href="#DejaVuSans-Bold-2e" transform="translate(529.541016 0)"/>
     <use xlink:href="#DejaVuSans-Bold-64" transform="translate(567.529297 0)"/>
     <use xlink:href="#DejaVuSans-Bold-62" transform="translate(639.111328 0)"/>
     <use xlink:href="#DejaVuSans-Bold-29" transform="translate(710.693359 0)"/>
    </g>
   </g>
   <g id="text_8">
    <!-- hs2_entry / hs3_proactive -->
    <g style="fill: #22282e" transform="translate(696.319809 210.380428) scale(0.075 -0.075)">
     <defs>
      <path id="DejaVuSans-32" d="M 1228 531 
L 3431 531 
L 3431 0 
L 469 0 
L 469 531 
Q 828 903 1448 1529 
Q 2069 2156 2228 2338 
Q 2531 2678 2651 2914 
Q 2772 3150 2772 3378 
Q 2772 3750 2511 3984 
Q 2250 4219 1831 4219 
Q 1534 4219 1204 4116 
Q 875 4013 500 3803 
L 500 4441 
Q 881 4594 1212 4672 
Q 1544 4750 1819 4750 
Q 2544 4750 2975 4387 
Q 3406 4025 3406 3419 
Q 3406 3131 3298 2873 
Q 3191 2616 2906 2266 
Q 2828 2175 2409 1742 
Q 1991 1309 1228 531 
z
" transform="scale(0.015625)"/>
      <path id="DejaVuSans-79" d="M 2059 -325 
Q 1816 -950 1584 -1140 
Q 1353 -1331 966 -1331 
L 506 -1331 
L 506 -850 
L 844 -850 
Q 1081 -850 1212 -737 
Q 1344 -625 1503 -206 
L 1606 56 
L 191 3500 
L 800 3500 
L 1894 763 
L 2988 3500 
L 3597 3500 
L 2059 -325 
z
" transform="scale(0.015625)"/>
      <path id="DejaVuSans-33" d="M 2597 2516 
Q 3050 2419 3304 2112 
Q 3559 1806 3559 1356 
Q 3559 666 3084 287 
Q 2609 -91 1734 -91 
Q 1441 -91 1130 -33 
Q 819 25 488 141 
L 488 750 
Q 750 597 1062 519 
Q 1375 441 1716 441 
Q 2309 441 2620 675 
Q 2931 909 2931 1356 
Q 2931 1769 2642 2001 
Q 2353 2234 1838 2234 
L 1294 2234 
L 1294 2753 
L 1863 2753 
Q 2328 2753 2575 2939 
Q 2822 3125 2822 3475 
Q 2822 3834 2567 4026 
Q 2313 4219 1838 4219 
Q 1578 4219 1281 4162 
Q 984 4106 628 3988 
L 628 4550 
Q 988 4650 1302 4700 
Q 1616 4750 1894 4750 
Q 2613 4750 3031 4423 
Q 3450 4097 3450 3541 
Q 3450 3153 3228 2886 
Q 3006 2619 2597 2516 
z
" transform="scale(0.015625)"/>
     </defs>
     <use xlink:href="#DejaVuSans-68"/>
     <use xlink:href="#DejaVuSans-73" transform="translate(63.378906 0)"/>
     <use xlink:href="#DejaVuSans-32" transform="translate(115.478516 0)"/>
     <use xlink:href="#DejaVuSans-5f" transform="translate(179.101562 0)"/>
     <use xlink:href="#DejaVuSans-65" transform="translate(229.101562 0)"/>
     <use xlink:href="#DejaVuSans-6e" transform="translate(290.625 0)"/>
     <use xlink:href="#DejaVuSans-74" transform="translate(354.003906 0)"/>
     <use xlink:href="#DejaVuSans-72" transform="translate(393.212891 0)"/>
     <use xlink:href="#DejaVuSans-79" transform="translate(434.326172 0)"/>
     <use xlink:href="#DejaVuSans-20" transform="translate(493.505859 0)"/>
     <use xlink:href="#DejaVuSans-2f" transform="translate(525.292969 0)"/>
     <use xlink:href="#DejaVuSans-20" transform="translate(558.984375 0)"/>
     <use xlink:href="#DejaVuSans-68" transform="translate(590.771484 0)"/>
     <use xlink:href="#DejaVuSans-73" transform="translate(654.150391 0)"/>
     <use xlink:href="#DejaVuSans-33" transform="translate(706.25 0)"/>
     <use xlink:href="#DejaVuSans-5f" transform="translate(769.873047 0)"/>
     <use xlink:href="#DejaVuSans-70" transform="translate(819.873047 0)"/>
     <use xlink:href="#DejaVuSans-72" transform="translate(883.349609 0)"/>
     <use xlink:href="#DejaVuSans-6f" transform="translate(922.212891 0)"/>
     <use xlink:href="#DejaVuSans-61" transform="translate(983.394531 0)"/>
     <use xlink:href="#DejaVuSans-63" transform="translate(1044.673828 0)"/>
     <use xlink:href="#DejaVuSans-74" transform="translate(1099.654297 0)"/>
     <use xlink:href="#DejaVuSans-69" transform="translate(1138.863281 0)"/>
     <use xlink:href="#DejaVuSans-76" transform="translate(1166.646484 0)"/>
     <use xlink:href="#DejaVuSans-65" transform="translate(1225.826172 0)"/>
    </g>
    <!--  hs3_recovery -->
    <g style="fill: #22282e" transform="translate(718.403208 218.987381) scale(0.075 -0.075)">
     <use xlink:href="#DejaVuSans-20"/>
     <use xlink:href="#DejaVuSans-68" transform="translate(31.787109 0)"/>
     <use xlink:href="#DejaVuSans-73" transform="translate(95.166016 0)"/>
     <use xlink:href="#DejaVuSans-33" transform="translate(147.265625 0)"/>
     <use xlink:href="#DejaVuSans-5f" transform="translate(210.888672 0)"/>
     <use xlink:href="#DejaVuSans-72" transform="translate(260.888672 0)"/>
     <use xlink:href="#DejaVuSans-65" transform="translate(299.751953 0)"/>
     <use xlink:href="#DejaVuSans-63" transform="translate(361.275391 0)"/>
     <use xlink:href="#DejaVuSans-6f" transform="translate(416.255859 0)"/>
     <use xlink:href="#DejaVuSans-76" transform="translate(477.4375 0)"/>
     <use xlink:href="#DejaVuSans-65" transform="translate(536.617188 0)"/>
     <use xlink:href="#DejaVuSans-72" transform="translate(598.140625 0)"/>
     <use xlink:href="#DejaVuSans-79" transform="translate(639.253906 0)"/>
    </g>
    <!--  chat_messages -->
    <g style="fill: #22282e" transform="translate(714.514927 227.594334) scale(0.075 -0.075)">
     <use xlink:href="#DejaVuSans-20"/>
     <use xlink:href="#DejaVuSans-63" transform="translate(31.787109 0)"/>
     <use xlink:href="#DejaVuSans-68" transform="translate(86.767578 0)"/>
     <use xlink:href="#DejaVuSans-61" transform="translate(150.146484 0)"/>
     <use xlink:href="#DejaVuSans-74" transform="translate(211.425781 0)"/>
     <use xlink:href="#DejaVuSans-5f" transform="translate(250.634766 0)"/>
     <use xlink:href="#DejaVuSans-6d" transform="translate(300.634766 0)"/>
     <use xlink:href="#DejaVuSans-65" transform="translate(398.046875 0)"/>
     <use xlink:href="#DejaVuSans-73" transform="translate(459.570312 0)"/>
     <use xlink:href="#DejaVuSans-73" transform="translate(511.669922 0)"/>
     <use xlink:href="#DejaVuSans-61" transform="translate(563.769531 0)"/>
     <use xlink:href="#DejaVuSans-67" transform="translate(625.048828 0)"/>
     <use xlink:href="#DejaVuSans-65" transform="translate(688.525391 0)"/>
     <use xlink:href="#DejaVuSans-73" transform="translate(750.048828 0)"/>
    </g>
   </g>
   <g id="text_9">
    <!-- Always-on embodied behaviour — data-logging pipeline -->
    <g style="fill: #22282e" transform="translate(251.233125 25.488) scale(0.12 -0.12)">
     <defs>
      <path id="DejaVuSans-Bold-41" d="M 3419 850 
L 1538 850 
L 1241 0 
L 31 0 
L 1759 4666 
L 3194 4666 
L 4922 0 
L 3713 0 
L 3419 850 
z
M 1838 1716 
L 3116 1716 
L 2478 3572 
L 1838 1716 
z
" transform="scale(0.015625)"/>
      <path id="DejaVuSans-Bold-79" d="M 78 3500 
L 1197 3500 
L 2138 1125 
L 2938 3500 
L 4056 3500 
L 2584 -331 
Q 2363 -916 2067 -1148 
Q 1772 -1381 1288 -1381 
L 641 -1381 
L 641 -647 
L 991 -647 
Q 1275 -647 1404 -556 
Q 1534 -466 1606 -231 
L 1638 -134 
L 78 3500 
z
" transform="scale(0.015625)"/>
      <path id="DejaVuSans-Bold-2d" d="M 347 2297 
L 2309 2297 
L 2309 1388 
L 347 1388 
L 347 2297 
z
" transform="scale(0.015625)"/>
      <path id="DejaVuSans-Bold-20" transform="scale(0.015625)"/>
      <path id="DejaVuSans-Bold-2014" d="M 344 2156 
L 6056 2156 
L 6056 1350 
L 344 1350 
L 344 2156 
z
" transform="scale(0.015625)"/>
      <path id="DejaVuSans-Bold-70" d="M 1656 506 
L 1656 -1331 
L 538 -1331 
L 538 3500 
L 1656 3500 
L 1656 2988 
Q 1888 3294 2169 3439 
Q 2450 3584 2816 3584 
Q 3463 3584 3878 3070 
Q 4294 2556 4294 1747 
Q 4294 938 3878 423 
Q 3463 -91 2816 -91 
Q 2450 -91 2169 54 
Q 1888 200 1656 506 
z
M 2400 2772 
Q 2041 2772 1848 2508 
Q 1656 2244 1656 1747 
Q 1656 1250 1848 986 
Q 2041 722 2400 722 
Q 2759 722 2948 984 
Q 3138 1247 3138 1747 
Q 3138 2247 2948 2509 
Q 2759 2772 2400 2772 
z
" transform="scale(0.015625)"/>
     </defs>
     <use xlink:href="#DejaVuSans-Bold-41"/>
     <use xlink:href="#DejaVuSans-Bold-6c" transform="translate(77.392578 0)"/>
     <use xlink:href="#DejaVuSans-Bold-77" transform="translate(111.669922 0)"/>
     <use xlink:href="#DejaVuSans-Bold-61" transform="translate(204.052734 0)"/>
     <use xlink:href="#DejaVuSans-Bold-79" transform="translate(268.408203 0)"/>
     <use xlink:href="#DejaVuSans-Bold-73" transform="translate(333.59375 0)"/>
     <use xlink:href="#DejaVuSans-Bold-2d" transform="translate(393.115234 0)"/>
     <use xlink:href="#DejaVuSans-Bold-6f" transform="translate(434.619141 0)"/>
     <use xlink:href="#DejaVuSans-Bold-6e" transform="translate(503.320312 0)"/>
     <use xlink:href="#DejaVuSans-Bold-20" transform="translate(574.511719 0)"/>
     <use xlink:href="#DejaVuSans-Bold-65" transform="translate(609.326172 0)"/>
     <use xlink:href="#DejaVuSans-Bold-6d" transform="translate(677.148438 0)"/>
     <use xlink:href="#DejaVuSans-Bold-62" transform="translate(781.347656 0)"/>
     <use xlink:href="#DejaVuSans-Bold-6f" transform="translate(852.929688 0)"/>
     <use xlink:href="#DejaVuSans-Bold-64" transform="translate(921.630859 0)"/>
     <use xlink:href="#DejaVuSans-Bold-69" transform="translate(993.212891 0)"/>
     <use xlink:href="#DejaVuSans-Bold-65" transform="translate(1027.490234 0)"/>
     <use xlink:href="#DejaVuSans-Bold-64" transform="translate(1095.3125 0)"/>
     <use xlink:href="#DejaVuSans-Bold-20" transform="translate(1166.894531 0)"/>
     <use xlink:href="#DejaVuSans-Bold-62" transform="translate(1201.708984 0)"/>
     <use xlink:href="#DejaVuSans-Bold-65" transform="translate(1273.291016 0)"/>
     <use xlink:href="#DejaVuSans-Bold-68" transform="translate(1341.113281 0)"/>
     <use xlink:href="#DejaVuSans-Bold-61" transform="translate(1412.304688 0)"/>
     <use xlink:href="#DejaVuSans-Bold-76" transform="translate(1479.785156 0)"/>
     <use xlink:href="#DejaVuSans-Bold-69" transform="translate(1544.970703 0)"/>
     <use xlink:href="#DejaVuSans-Bold-6f" transform="translate(1579.248047 0)"/>
     <use xlink:href="#DejaVuSans-Bold-75" transform="translate(1647.949219 0)"/>
     <use xlink:href="#DejaVuSans-Bold-72" transform="translate(1719.140625 0)"/>
     <use xlink:href="#DejaVuSans-Bold-20" transform="translate(1768.457031 0)"/>
     <use xlink:href="#DejaVuSans-Bold-2014" transform="translate(1803.271484 0)"/>
     <use xlink:href="#DejaVuSans-Bold-20" transform="translate(1903.271484 0)"/>
     <use xlink:href="#DejaVuSans-Bold-64" transform="translate(1938.085938 0)"/>
     <use xlink:href="#DejaVuSans-Bold-61" transform="translate(2009.667969 0)"/>
     <use xlink:href="#DejaVuSans-Bold-74" transform="translate(2077.148438 0)"/>
     <use xlink:href="#DejaVuSans-Bold-61" transform="translate(2124.951172 0)"/>
     <use xlink:href="#DejaVuSans-Bold-2d" transform="translate(2192.431641 0)"/>
     <use xlink:href="#DejaVuSans-Bold-6c" transform="translate(2233.935547 0)"/>
     <use xlink:href="#DejaVuSans-Bold-6f" transform="translate(2268.212891 0)"/>
     <use xlink:href="#DejaVuSans-Bold-67" transform="translate(2336.914062 0)"/>
     <use xlink:href="#DejaVuSans-Bold-67" transform="translate(2408.496094 0)"/>
     <use xlink:href="#DejaVuSans-Bold-69" transform="translate(2480.078125 0)"/>
     <use xlink:href="#DejaVuSans-Bold-6e" transform="translate(2514.355469 0)"/>
     <use xlink:href="#DejaVuSans-Bold-67" transform="translate(2585.546875 0)"/>
     <use xlink:href="#DejaVuSans-Bold-20" transform="translate(2657.128906 0)"/>
     <use xlink:href="#DejaVuSans-Bold-70" transform="translate(2691.943359 0)"/>
     <use xlink:href="#DejaVuSans-Bold-69" transform="translate(2763.525391 0)"/>
     <use xlink:href="#DejaVuSans-Bold-70" transform="translate(2797.802734 0)"/>
     <use xlink:href="#DejaVuSans-Bold-65" transform="translate(2869.384766 0)"/>
     <use xlink:href="#DejaVuSans-Bold-6c" transform="translate(2937.207031 0)"/>
     <use xlink:href="#DejaVuSans-Bold-69" transform="translate(2971.484375 0)"/>
     <use xlink:href="#DejaVuSans-Bold-6e" transform="translate(3005.761719 0)"/>
     <use xlink:href="#DejaVuSans-Bold-65" transform="translate(3076.953125 0)"/>
    </g>
   </g>
   <g id="text_10">
    <!-- interaction_result RPC (homeostatic reward, energy cost) -->
    <g style="fill: #22282e" transform="translate(332.240508 260.701847) scale(0.075 -0.075)">
     <defs>
      <path id="DejaVuSans-Oblique-69" d="M 1172 4863 
L 1747 4863 
L 1606 4134 
L 1031 4134 
L 1172 4863 
z
M 909 3500 
L 1484 3500 
L 800 0 
L 225 0 
L 909 3500 
z
" transform="scale(0.015625)"/>
      <path id="DejaVuSans-Oblique-6e" d="M 3566 2113 
L 3156 0 
L 2578 0 
L 2988 2091 
Q 3016 2238 3031 2350 
Q 3047 2463 3047 2528 
Q 3047 2791 2881 2937 
Q 2716 3084 2419 3084 
Q 1956 3084 1622 2776 
Q 1288 2469 1184 1941 
L 800 0 
L 225 0 
L 903 3500 
L 1478 3500 
L 1363 2950 
Q 1603 3253 1940 3418 
Q 2278 3584 2650 3584 
Q 3113 3584 3367 3334 
Q 3622 3084 3622 2631 
Q 3622 2519 3608 2391 
Q 3594 2263 3566 2113 
z
" transform="scale(0.015625)"/>
      <path id="DejaVuSans-Oblique-74" d="M 2706 3500 
L 2619 3053 
L 1472 3053 
L 1100 1153 
Q 1081 1047 1072 975 
Q 1063 903 1063 863 
Q 1063 663 1183 572 
Q 1303 481 1569 481 
L 2150 481 
L 2053 0 
L 1503 0 
Q 991 0 739 200 
Q 488 400 488 806 
Q 488 878 497 964 
Q 506 1050 525 1153 
L 897 3053 
L 409 3053 
L 500 3500 
L 978 3500 
L 1172 4494 
L 1747 4494 
L 1556 3500 
L 2706 3500 
z
" transform="scale(0.015625)"/>
      <path id="DejaVuSans-Oblique-65" d="M 3078 2063 
Q 3088 2113 3092 2166 
Q 3097 2219 3097 2272 
Q 3097 2653 2873 2875 
Q 2650 3097 2266 3097 
Q 1838 3097 1509 2826 
Q 1181 2556 1013 2059 
L 3078 2063 
z
M 3578 1613 
L 903 1613 
Q 884 1494 878 1425 
Q 872 1356 872 1306 
Q 872 872 1139 634 
Q 1406 397 1894 397 
Q 2269 397 2603 481 
Q 2938 566 3225 728 
L 3116 159 
Q 2806 34 2476 -28 
Q 2147 -91 1806 -91 
Q 1078 -91 686 257 
Q 294 606 294 1247 
Q 294 1794 489 2264 
Q 684 2734 1063 3103 
Q 1306 3334 1642 3459 
Q 1978 3584 2356 3584 
Q 2950 3584 3301 3228 
Q 3653 2872 3653 2272 
Q 3653 2128 3634 1964 
Q 3616 1800 3578 1613 
z
" transform="scale(0.015625)"/>
      <path id="DejaVuSans-Oblique-72" d="M 2853 2969 
Q 2766 3016 2653 3041 
Q 2541 3066 2413 3066 
Q 1953 3066 1609 2717 
Q 1266 2369 1153 1784 
L 800 0 
L 225 0 
L 909 3500 
L 1484 3500 
L 1375 2956 
Q 1603 3259 1920 3421 
Q 2238 3584 2597 3584 
Q 2691 3584 2781 3573 
Q 2872 3563 2963 3538 
L 2853 2969 
z
" transform="scale(0.015625)"/>
      <path id="DejaVuSans-Oblique-61" d="M 3438 1997 
L 3047 0 
L 2472 0 
L 2578 531 
Q 2325 219 2001 64 
Q 1678 -91 1281 -91 
Q 834 -91 548 182 
Q 263 456 263 884 
Q 263 1497 752 1853 
Q 1241 2209 2100 2209 
L 2900 2209 
L 2931 2363 
Q 2938 2388 2941 2417 
Q 2944 2447 2944 2509 
Q 2944 2788 2717 2942 
Q 2491 3097 2081 3097 
Q 1800 3097 1504 3025 
Q 1209 2953 897 2809 
L 997 3341 
Q 1322 3463 1633 3523 
Q 1944 3584 2234 3584 
Q 2853 3584 3176 3315 
Q 3500 3047 3500 2534 
Q 3500 2431 3484 2292 
Q 3469 2153 3438 1997 
z
M 2816 1759 
L 2241 1759 
Q 1534 1759 1195 1570 
Q 856 1381 856 984 
Q 856 709 1029 553 
Q 1203 397 1509 397 
Q 1978 397 2328 733 
Q 2678 1069 2791 1631 
L 2816 1759 
z
" transform="scale(0.015625)"/>
      <path id="DejaVuSans-Oblique-63" d="M 3431 3366 
L 3316 2797 
Q 3109 2947 2876 3022 
Q 2644 3097 2394 3097 
Q 2119 3097 1870 3000 
Q 1622 2903 1453 2725 
Q 1184 2453 1037 2087 
Q 891 1722 891 1331 
Q 891 859 1127 628 
Q 1363 397 1844 397 
Q 2081 397 2348 469 
Q 2616 541 2906 684 
L 2797 116 
Q 2547 13 2283 -39 
Q 2019 -91 1741 -91 
Q 1044 -91 669 257 
Q 294 606 294 1253 
Q 294 1797 489 2255 
Q 684 2713 1069 3078 
Q 1331 3328 1684 3456 
Q 2038 3584 2456 3584 
Q 2700 3584 2940 3529 
Q 3181 3475 3431 3366 
z
" transform="scale(0.015625)"/>
      <path id="DejaVuSans-Oblique-6f" d="M 1625 -91 
Q 1009 -91 651 289 
Q 294 669 294 1325 
Q 294 1706 417 2101 
Q 541 2497 738 2766 
Q 1047 3184 1428 3384 
Q 1809 3584 2291 3584 
Q 2888 3584 3255 3212 
Q 3622 2841 3622 2241 
Q 3622 1825 3500 1412 
Q 3378 1000 3181 728 
Q 2875 309 2494 109 
Q 2113 -91 1625 -91 
z
M 891 1344 
Q 891 869 1089 633 
Q 1288 397 1691 397 
Q 2269 397 2648 901 
Q 3028 1406 3028 2181 
Q 3028 2634 2825 2865 
Q 2622 3097 2228 3097 
Q 1903 3097 1650 2945 
Q 1397 2794 1197 2484 
Q 1050 2253 970 1956 
Q 891 1659 891 1344 
z
" transform="scale(0.015625)"/>
      <path id="DejaVuSans-Oblique-5f" d="M 3263 -1063 
L 3263 -1509 
L -63 -1509 
L -63 -1063 
L 3263 -1063 
z
" transform="scale(0.015625)"/>
      <path id="DejaVuSans-Oblique-73" d="M 3200 3397 
L 3091 2853 
Q 2863 2978 2609 3040 
Q 2356 3103 2088 3103 
Q 1634 3103 1373 2948 
Q 1113 2794 1113 2528 
Q 1113 2219 1719 2053 
Q 1766 2041 1788 2034 
L 1972 1978 
Q 2547 1819 2739 1644 
Q 2931 1469 2931 1166 
Q 2931 609 2489 259 
Q 2047 -91 1331 -91 
Q 1053 -91 747 -37 
Q 441 16 72 128 
L 184 722 
Q 500 559 806 475 
Q 1113 391 1394 391 
Q 1816 391 2080 572 
Q 2344 753 2344 1031 
Q 2344 1331 1650 1516 
L 1591 1531 
L 1394 1581 
Q 956 1697 753 1886 
Q 550 2075 550 2369 
Q 550 2928 970 3256 
Q 1391 3584 2113 3584 
Q 2397 3584 2667 3537 
Q 2938 3491 3200 3397 
z
" transform="scale(0.015625)"/>
      <path id="DejaVuSans-Oblique-75" d="M 428 1388 
L 838 3500 
L 1416 3500 
L 1006 1409 
Q 975 1256 961 1147 
Q 947 1038 947 966 
Q 947 700 1109 554 
Q 1272 409 1569 409 
Q 2031 409 2368 721 
Q 2706 1034 2809 1563 
L 3194 3500 
L 3769 3500 
L 3091 0 
L 2516 0 
L 2631 550 
Q 2388 244 2052 76 
Q 1716 -91 1338 -91 
Q 878 -91 622 161 
Q 366 413 366 863 
Q 366 956 381 1097 
Q 397 1238 428 1388 
z
" transform="scale(0.015625)"/>
      <path id="DejaVuSans-Oblique-6c" d="M 1172 4863 
L 1747 4863 
L 800 0 
L 225 0 
L 1172 4863 
z
" transform="scale(0.015625)"/>
      <path id="DejaVuSans-Oblique-20" transform="scale(0.015625)"/>
      <path id="DejaVuSans-Oblique-52" d="M 1613 4147 
L 1294 2491 
L 2106 2491 
Q 2584 2491 2879 2755 
Q 3175 3019 3175 3444 
Q 3175 3784 2976 3965 
Q 2778 4147 2406 4147 
L 1613 4147 
z
M 2772 2241 
Q 2972 2194 3105 2009 
Q 3238 1825 3413 1275 
L 3809 0 
L 3144 0 
L 2778 1197 
Q 2638 1659 2453 1815 
Q 2269 1972 1888 1972 
L 1191 1972 
L 806 0 
L 172 0 
L 1081 4666 
L 2503 4666 
Q 3150 4666 3495 4373 
Q 3841 4081 3841 3531 
Q 3841 3044 3547 2687 
Q 3253 2331 2772 2241 
z
" transform="scale(0.015625)"/>
      <path id="DejaVuSans-Oblique-50" d="M 1081 4666 
L 2541 4666 
Q 3178 4666 3512 4369 
Q 3847 4072 3847 3500 
Q 3847 2731 3353 2303 
Q 2859 1875 1966 1875 
L 1172 1875 
L 806 0 
L 172 0 
L 1081 4666 
z
M 1613 4147 
L 1275 2394 
L 2069 2394 
Q 2606 2394 2893 2669 
Q 3181 2944 3181 3456 
Q 3181 3784 2986 3965 
Q 2791 4147 2438 4147 
L 1613 4147 
z
" transform="scale(0.015625)"/>
      <path id="DejaVuSans-Oblique-43" d="M 4447 4306 
L 4319 3641 
Q 4019 3944 3683 4091 
Q 3347 4238 2956 4238 
Q 2422 4238 2017 3981 
Q 1613 3725 1319 3200 
Q 1131 2863 1032 2486 
Q 934 2109 934 1728 
Q 934 1091 1264 756 
Q 1594 422 2222 422 
Q 2656 422 3056 561 
Q 3456 700 3834 978 
L 3688 231 
Q 3316 72 2936 -9 
Q 2556 -91 2175 -91 
Q 1278 -91 773 396 
Q 269 884 269 1753 
Q 269 2309 461 2846 
Q 653 3384 1013 3828 
Q 1394 4300 1883 4525 
Q 2372 4750 3022 4750 
Q 3422 4750 3780 4639 
Q 4138 4528 4447 4306 
z
" transform="scale(0.015625)"/>
      <path id="DejaVuSans-Oblique-28" d="M 2731 4856 
Q 1903 3822 1495 2892 
Q 1088 1963 1088 1100 
Q 1088 606 1206 120 
Q 1325 -366 1563 -844 
L 1063 -844 
Q 775 -306 634 201 
Q 494 709 494 1197 
Q 494 2125 923 3036 
Q 1353 3947 2222 4856 
L 2731 4856 
z
" transform="scale(0.015625)"/>
      <path id="DejaVuSans-Oblique-68" d="M 3566 2113 
L 3156 0 
L 2578 0 
L 2988 2091 
Q 3016 2238 3031 2350 
Q 3047 2463 3047 2528 
Q 3047 2791 2881 2937 
Q 2716 3084 2419 3084 
Q 1956 3084 1617 2771 
Q 1278 2459 1178 1941 
L 800 0 
L 225 0 
L 1172 4863 
L 1747 4863 
L 1375 2950 
Q 1594 3244 1934 3414 
Q 2275 3584 2650 3584 
Q 3113 3584 3367 3334 
Q 3622 3084 3622 2631 
Q 3622 2519 3608 2391 
Q 3594 2263 3566 2113 
z
" transform="scale(0.015625)"/>
      <path id="DejaVuSans-Oblique-6d" d="M 5747 2113 
L 5338 0 
L 4763 0 
L 5166 2094 
Q 5191 2228 5203 2325 
Q 5216 2422 5216 2491 
Q 5216 2772 5059 2928 
Q 4903 3084 4622 3084 
Q 4203 3084 3875 2770 
Q 3547 2456 3450 1953 
L 3066 0 
L 2491 0 
L 2900 2094 
Q 2925 2209 2937 2307 
Q 2950 2406 2950 2484 
Q 2950 2769 2794 2926 
Q 2638 3084 2363 3084 
Q 1938 3084 1609 2770 
Q 1281 2456 1184 1953 
L 800 0 
L 225 0 
L 909 3500 
L 1484 3500 
L 1375 2956 
Q 1609 3263 1923 3423 
Q 2238 3584 2597 3584 
Q 2978 3584 3223 3384 
Q 3469 3184 3519 2828 
Q 3781 3197 4126 3390 
Q 4472 3584 4856 3584 
Q 5306 3584 5551 3325 
Q 5797 3066 5797 2591 
Q 5797 2488 5784 2364 
Q 5772 2241 5747 2113 
z
" transform="scale(0.015625)"/>
      <path id="DejaVuSans-Oblique-77" d="M 544 3500 
L 1113 3500 
L 1259 684 
L 2566 3500 
L 3231 3500 
L 3425 684 
L 4666 3500 
L 5241 3500 
L 3641 0 
L 2969 0 
L 2797 2900 
L 1459 0 
L 781 0 
L 544 3500 
z
" transform="scale(0.015625)"/>
      <path id="DejaVuSans-Oblique-64" d="M 2675 525 
Q 2444 222 2128 65 
Q 1813 -91 1428 -91 
Q 903 -91 598 267 
Q 294 625 294 1247 
Q 294 1766 478 2236 
Q 663 2706 1013 3078 
Q 1244 3325 1534 3454 
Q 1825 3584 2144 3584 
Q 2481 3584 2739 3421 
Q 2997 3259 3138 2956 
L 3513 4863 
L 4091 4863 
L 3144 0 
L 2566 0 
L 2675 525 
z
M 891 1350 
Q 891 897 1095 644 
Q 1300 391 1663 391 
Q 1931 391 2161 520 
Q 2391 650 2566 903 
Q 2750 1166 2856 1509 
Q 2963 1853 2963 2188 
Q 2963 2622 2758 2865 
Q 2553 3109 2194 3109 
Q 1922 3109 1687 2981 
Q 1453 2853 1288 2613 
Q 1106 2353 998 2009 
Q 891 1666 891 1350 
z
" transform="scale(0.015625)"/>
      <path id="DejaVuSans-Oblique-2c" d="M 575 794 
L 1234 794 
L 1131 256 
L 422 -744 
L 19 -744 
L 469 256 
L 575 794 
z
" transform="scale(0.015625)"/>
      <path id="DejaVuSans-Oblique-67" d="M 3816 3500 
L 3219 434 
Q 3047 -456 2561 -893 
Q 2075 -1331 1253 -1331 
Q 950 -1331 690 -1286 
Q 431 -1241 206 -1147 
L 313 -588 
Q 525 -725 762 -790 
Q 1000 -856 1269 -856 
Q 1816 -856 2167 -557 
Q 2519 -259 2631 300 
L 2681 563 
Q 2441 288 2122 144 
Q 1803 0 1434 0 
Q 903 0 598 351 
Q 294 703 294 1319 
Q 294 1803 478 2267 
Q 663 2731 997 3091 
Q 1219 3328 1514 3456 
Q 1809 3584 2131 3584 
Q 2484 3584 2746 3420 
Q 3009 3256 3138 2956 
L 3238 3500 
L 3816 3500 
z
M 2950 2216 
Q 2950 2641 2750 2872 
Q 2550 3103 2181 3103 
Q 1953 3103 1747 3012 
Q 1541 2922 1394 2759 
Q 1156 2491 1023 2127 
Q 891 1763 891 1375 
Q 891 944 1092 712 
Q 1294 481 1672 481 
Q 2219 481 2584 976 
Q 2950 1472 2950 2216 
z
" transform="scale(0.015625)"/>
      <path id="DejaVuSans-Oblique-79" d="M 1588 -325 
Q 1188 -997 936 -1164 
Q 684 -1331 294 -1331 
L -159 -1331 
L -63 -850 
L 269 -850 
Q 509 -850 678 -719 
Q 847 -588 1056 -206 
L 1234 128 
L 459 3500 
L 1069 3500 
L 1650 819 
L 3256 3500 
L 3859 3500 
L 1588 -325 
z
" transform="scale(0.015625)"/>
      <path id="DejaVuSans-Oblique-29" d="M -397 -844 
Q 434 191 840 1120 
Q 1247 2050 1247 2913 
Q 1247 3406 1130 3892 
Q 1013 4378 775 4856 
L 1275 4856 
Q 1563 4316 1703 3812 
Q 1844 3309 1844 2822 
Q 1844 1891 1411 973 
Q 978 56 116 -844 
L -397 -844 
z
" transform="scale(0.015625)"/>
     </defs>
     <use xlink:href="#DejaVuSans-Oblique-69"/>
     <use xlink:href="#DejaVuSans-Oblique-6e" transform="translate(27.783203 0)"/>
     <use xlink:href="#DejaVuSans-Oblique-74" transform="translate(91.162109 0)"/>
     <use xlink:href="#DejaVuSans-Oblique-65" transform="translate(130.371094 0)"/>
     <use xlink:href="#DejaVuSans-Oblique-72" transform="translate(191.894531 0)"/>
     <use xlink:href="#DejaVuSans-Oblique-61" transform="translate(233.007812 0)"/>
     <use xlink:href="#DejaVuSans-Oblique-63" transform="translate(294.287109 0)"/>
     <use xlink:href="#DejaVuSans-Oblique-74" transform="translate(349.267578 0)"/>
     <use xlink:href="#DejaVuSans-Oblique-69" transform="translate(388.476562 0)"/>
     <use xlink:href="#DejaVuSans-Oblique-6f" transform="translate(416.259766 0)"/>
     <use xlink:href="#DejaVuSans-Oblique-6e" transform="translate(477.441406 0)"/>
     <use xlink:href="#DejaVuSans-Oblique-5f" transform="translate(540.820312 0)"/>
     <use xlink:href="#DejaVuSans-Oblique-72" transform="translate(590.820312 0)"/>
     <use xlink:href="#DejaVuSans-Oblique-65" transform="translate(631.933594 0)"/>
     <use xlink:href="#DejaVuSans-Oblique-73" transform="translate(693.457031 0)"/>
     <use xlink:href="#DejaVuSans-Oblique-75" transform="translate(745.556641 0)"/>
     <use xlink:href="#DejaVuSans-Oblique-6c" transform="translate(808.935547 0)"/>
     <use xlink:href="#DejaVuSans-Oblique-74" transform="translate(836.71875 0)"/>
     <use xlink:href="#DejaVuSans-Oblique-20" transform="translate(875.927734 0)"/>
     <use xlink:href="#DejaVuSans-Oblique-52" transform="translate(907.714844 0)"/>
     <use xlink:href="#DejaVuSans-Oblique-50" transform="translate(977.197266 0)"/>
     <use xlink:href="#DejaVuSans-Oblique-43" transform="translate(1037.5 0)"/>
     <use xlink:href="#DejaVuSans-Oblique-20" transform="translate(1107.324219 0)"/>
     <use xlink:href="#DejaVuSans-Oblique-28" transform="translate(1139.111328 0)"/>
     <use xlink:href="#DejaVuSans-Oblique-68" transform="translate(1178.125 0)"/>
     <use xlink:href="#DejaVuSans-Oblique-6f" transform="translate(1241.503906 0)"/>
     <use xlink:href="#DejaVuSans-Oblique-6d" transform="translate(1302.685547 0)"/>
     <use xlink:href="#DejaVuSans-Oblique-65" transform="translate(1400.097656 0)"/>
     <use xlink:href="#DejaVuSans-Oblique-6f" transform="translate(1461.621094 0)"/>
     <use xlink:href="#DejaVuSans-Oblique-73" transform="translate(1522.802734 0)"/>
     <use xlink:href="#DejaVuSans-Oblique-74" transform="translate(1574.902344 0)"/>
     <use xlink:href="#DejaVuSans-Oblique-61" transform="translate(1614.111328 0)"/>
     <use xlink:href="#DejaVuSans-Oblique-74" transform="translate(1675.390625 0)"/>
     <use xlink:href="#DejaVuSans-Oblique-69" transform="translate(1714.599609 0)"/>
     <use xlink:href="#DejaVuSans-Oblique-63" transform="translate(1742.382812 0)"/>
     <use xlink:href="#DejaVuSans-Oblique-20" transform="translate(1797.363281 0)"/>
     <use xlink:href="#DejaVuSans-Oblique-72" transform="translate(1829.150391 0)"/>
     <use xlink:href="#DejaVuSans-Oblique-65" transform="translate(1870.263672 0)"/>
     <use xlink:href="#DejaVuSans-Oblique-77" transform="translate(1931.787109 0)"/>
     <use xlink:href="#DejaVuSans-Oblique-61" transform="translate(2013.574219 0)"/>
     <use xlink:href="#DejaVuSans-Oblique-72" transform="translate(2074.853516 0)"/>
     <use xlink:href="#DejaVuSans-Oblique-64" transform="translate(2115.966797 0)"/>
     <use xlink:href="#DejaVuSans-Oblique-2c" transform="translate(2179.443359 0)"/>
     <use xlink:href="#DejaVuSans-Oblique-20" transform="translate(2211.230469 0)"/>
     <use xlink:href="#DejaVuSans-Oblique-65" transform="translate(2243.017578 0)"/>
     <use xlink:href="#DejaVuSans-Oblique-6e" transform="translate(2304.541016 0)"/>
     <use xlink:href="#DejaVuSans-Oblique-65" transform="translate(2367.919922 0)"/>
     <use xlink:href="#DejaVuSans-Oblique-72" transform="translate(2429.443359 0)"/>
     <use xlink:href="#DejaVuSans-Oblique-67" transform="translate(2470.556641 0)"/>
     <use xlink:href="#DejaVuSans-Oblique-79" transform="translate(2534.033203 0)"/>
     <use xlink:href="#DejaVuSans-Oblique-20" transform="translate(2593.212891 0)"/>
     <use xlink:href="#DejaVuSans-Oblique-63" transform="translate(2625 0)"/>
     <use xlink:href="#DejaVuSans-Oblique-6f" transform="translate(2679.980469 0)"/>
     <use xlink:href="#DejaVuSans-Oblique-73" transform="translate(2741.162109 0)"/>
     <use xlink:href="#DejaVuSans-Oblique-74" transform="translate(2793.261719 0)"/>
     <use xlink:href="#DejaVuSans-Oblique-29" transform="translate(2832.470703 0)"/>
    </g>
    <!-- closes the loop: drive reduction ↦ IPS weight learning -->
    <g style="fill: #22282e" transform="translate(339.103594 269.3088) scale(0.075 -0.075)">
     <defs>
      <path id="DejaVuSans-Oblique-70" d="M 3175 2156 
Q 3175 2616 2975 2859 
Q 2775 3103 2400 3103 
Q 2144 3103 1911 2972 
Q 1678 2841 1497 2591 
Q 1319 2344 1212 1994 
Q 1106 1644 1106 1300 
Q 1106 863 1306 627 
Q 1506 391 1875 391 
Q 2147 391 2380 519 
Q 2613 647 2778 891 
Q 2956 1147 3065 1494 
Q 3175 1841 3175 2156 
z
M 1394 2969 
Q 1625 3272 1939 3428 
Q 2253 3584 2638 3584 
Q 3175 3584 3472 3232 
Q 3769 2881 3769 2247 
Q 3769 1728 3584 1258 
Q 3400 788 3053 416 
Q 2822 169 2531 39 
Q 2241 -91 1919 -91 
Q 1547 -91 1294 64 
Q 1041 219 916 525 
L 556 -1331 
L -19 -1331 
L 922 3500 
L 1497 3500 
L 1394 2969 
z
" transform="scale(0.015625)"/>
      <path id="DejaVuSans-Oblique-3a" d="M 978 3309 
L 1638 3309 
L 1484 2516 
L 825 2516 
L 978 3309 
z
M 488 794 
L 1147 794 
L 991 0 
L 331 0 
L 488 794 
z
" transform="scale(0.015625)"/>
      <path id="DejaVuSans-Oblique-76" d="M 459 3500 
L 1069 3500 
L 1581 525 
L 3256 3500 
L 3866 3500 
L 1875 0 
L 1100 0 
L 459 3500 
z
" transform="scale(0.015625)"/>
      <path id="DejaVuSans-Oblique-21a6" d="M 897 1741 
L 897 663 
L 366 663 
L 366 3350 
L 897 3350 
L 897 2272 
L 4175 2272 
L 3447 3000 
L 3822 3375 
L 5050 2147 
L 5050 1866 
L 3822 638 
L 3447 1013 
L 4175 1741 
L 897 1741 
z
" transform="scale(0.015625)"/>
      <path id="DejaVuSans-Oblique-49" d="M 1081 4666 
L 1716 4666 
L 806 0 
L 172 0 
L 1081 4666 
z
" transform="scale(0.015625)"/>
      <path id="DejaVuSans-Oblique-53" d="M 3859 4513 
L 3738 3897 
Q 3422 4066 3111 4152 
Q 2800 4238 2509 4238 
Q 1944 4238 1609 3991 
Q 1275 3744 1275 3334 
Q 1275 3109 1398 2989 
Q 1522 2869 2034 2731 
L 2413 2638 
Q 3053 2472 3303 2217 
Q 3553 1963 3553 1503 
Q 3553 797 2998 353 
Q 2444 -91 1538 -91 
Q 1166 -91 791 -17 
Q 416 56 38 206 
L 166 856 
Q 513 641 861 531 
Q 1209 422 1556 422 
Q 2147 422 2503 684 
Q 2859 947 2859 1369 
Q 2859 1650 2717 1795 
Q 2575 1941 2106 2059 
L 1728 2156 
Q 1081 2325 845 2545 
Q 609 2766 609 3163 
Q 609 3859 1145 4304 
Q 1681 4750 2541 4750 
Q 2875 4750 3203 4690 
Q 3531 4631 3859 4513 
z
" transform="scale(0.015625)"/>
     </defs>
     <use xlink:href="#DejaVuSans-Oblique-63"/>
     <use xlink:href="#DejaVuSans-Oblique-6c" transform="translate(54.980469 0)"/>
     <use xlink:href="#DejaVuSans-Oblique-6f" transform="translate(82.763672 0)"/>
     <use xlink:href="#DejaVuSans-Oblique-73" transform="translate(143.945312 0)"/>
     <use xlink:href="#DejaVuSans-Oblique-65" transform="translate(196.044922 0)"/>
     <use xlink:href="#DejaVuSans-Oblique-73" transform="translate(257.568359 0)"/>
     <use xlink:href="#DejaVuSans-Oblique-20" transform="translate(309.667969 0)"/>
     <use xlink:href="#DejaVuSans-Oblique-74" transform="translate(341.455078 0)"/>
     <use xlink:href="#DejaVuSans-Oblique-68" transform="translate(380.664062 0)"/>
     <use xlink:href="#DejaVuSans-Oblique-65" transform="translate(444.042969 0)"/>
     <use xlink:href="#DejaVuSans-Oblique-20" transform="translate(505.566406 0)"/>
     <use xlink:href="#DejaVuSans-Oblique-6c" transform="translate(537.353516 0)"/>
     <use xlink:href="#DejaVuSans-Oblique-6f" transform="translate(565.136719 0)"/>
     <use xlink:href="#DejaVuSans-Oblique-6f" transform="translate(626.318359 0)"/>
     <use xlink:href="#DejaVuSans-Oblique-70" transform="translate(687.5 0)"/>
     <use xlink:href="#DejaVuSans-Oblique-3a" transform="translate(750.976562 0)"/>
     <use xlink:href="#DejaVuSans-Oblique-20" transform="translate(784.667969 0)"/>
     <use xlink:href="#DejaVuSans-Oblique-64" transform="translate(816.455078 0)"/>
     <use xlink:href="#DejaVuSans-Oblique-72" transform="translate(879.931641 0)"/>
     <use xlink:href="#DejaVuSans-Oblique-69" transform="translate(921.044922 0)"/>
     <use xlink:href="#DejaVuSans-Oblique-76" transform="translate(948.828125 0)"/>
     <use xlink:href="#DejaVuSans-Oblique-65" transform="translate(1008.007812 0)"/>
     <use xlink:href="#DejaVuSans-Oblique-20" transform="translate(1069.53125 0)"/>
     <use xlink:href="#DejaVuSans-Oblique-72" transform="translate(1101.318359 0)"/>
     <use xlink:href="#DejaVuSans-Oblique-65" transform="translate(1142.431641 0)"/>
     <use xlink:href="#DejaVuSans-Oblique-64" transform="translate(1203.955078 0)"/>
     <use xlink:href="#DejaVuSans-Oblique-75" transform="translate(1267.431641 0)"/>
     <use xlink:href="#DejaVuSans-Oblique-63" transform="translate(1330.810547 0)"/>
     <use xlink:href="#DejaVuSans-Oblique-74" transform="translate(1385.791016 0)"/>
     <use xlink:href="#DejaVuSans-Oblique-69" transform="translate(1425 0)"/>
     <use xlink:href="#DejaVuSans-Oblique-6f" transform="translate(1452.783203 0)"/>
     <use xlink:href="#DejaVuSans-Oblique-6e" transform="translate(1513.964844 0)"/>
     <use xlink:href="#DejaVuSans-Oblique-20" transform="translate(1577.34375 0)"/>
     <use xlink:href="#DejaVuSans-Oblique-21a6" transform="translate(1609.130859 0)"/>
     <use xlink:href="#DejaVuSans-Oblique-20" transform="translate(1692.919922 0)"/>
     <use xlink:href="#DejaVuSans-Oblique-49" transform="translate(1724.707031 0)"/>
     <use xlink:href="#DejaVuSans-Oblique-50" transform="translate(1754.199219 0)"/>
     <use xlink:href="#DejaVuSans-Oblique-53" transform="translate(1814.501953 0)"/>
     <use xlink:href="#DejaVuSans-Oblique-20" transform="translate(1877.978516 0)"/>
     <use xlink:href="#DejaVuSans-Oblique-77" transform="translate(1909.765625 0)"/>
     <use xlink:href="#DejaVuSans-Oblique-65" transform="translate(1991.552734 0)"/>
     <use xlink:href="#DejaVuSans-Oblique-69" transform="translate(2053.076172 0)"/>
     <use xlink:href="#DejaVuSans-Oblique-67" transform="translate(2080.859375 0)"/>
     <use xlink:href="#DejaVuSans-Oblique-68" transform="translate(2144.335938 0)"/>
     <use xlink:href="#DejaVuSans-Oblique-74" transform="translate(2207.714844 0)"/>
     <use xlink:href="#DejaVuSans-Oblique-20" transform="translate(2246.923828 0)"/>
     <use xlink:href="#DejaVuSans-Oblique-6c" transform="translate(2278.710938 0)"/>
     <use xlink:href="#DejaVuSans-Oblique-65" transform="translate(2306.494141 0)"/>
     <use xlink:href="#DejaVuSans-Oblique-61" transform="translate(2368.017578 0)"/>
     <use xlink:href="#DejaVuSans-Oblique-72" transform="translate(2429.296875 0)"/>
     <use xlink:href="#DejaVuSans-Oblique-6e" transform="translate(2470.410156 0)"/>
     <use xlink:href="#DejaVuSans-Oblique-69" transform="translate(2533.789062 0)"/>
     <use xlink:href="#DejaVuSans-Oblique-6e" transform="translate(2561.572266 0)"/>
     <use xlink:href="#DejaVuSans-Oblique-67" transform="translate(2624.951172 0)"/>
    </g>
   </g>
  </g>
 </g>
 <defs>
  <clipPath id="pb907eeac27">
   <rect x="10.8" y="10.8" width="858.24" height="293.76"/>
  </clipPath>
 </defs>
</svg>
